<svg xmlns="http://www.w3.org/2000/svg" xmlns:xlink="http://www.w3.org/1999/xlink" width="1490" height="906.69"><rect width="1490" height="906.69" rx="5" ry="5" class="a"/><svg y="0%" x="0%"><circle cx="20" cy="20" r="6" fill="#ff5f58"/><circle cx="40" cy="20" r="6" fill="#ffbd2e"/><circle cx="60" cy="20" r="6" fill="#18c132"/></svg><svg height="846.69" viewBox="0 0 145 84.669" width="1450" x="15" xmlns="http://www.w3.org/2000/svg" xmlns:xlink="http://www.w3.org/1999/xlink" y="50"><style>@keyframes l{0%{transform:translateX(0)}66.7%{transform:translateX(-2900px)}83.3%{transform:translateX(-8990px)}to{transform:translateX(-14210px)}}.a{fill:#282d35}.f{fill:#a8cc8c}.f,.g,.h,.i,.j{white-space:pre}.g{fill:#a8cc8c;font-weight:700}.h,.i,.j{fill:#dbab79}.i,.j{font-weight:700}.j{fill:#6f7783}</style><g font-family="Monaco,Consolas,Menlo,'Bitstream Vera Sans Mono','Powerline Symbols',monospace" font-size="1.67"><defs><symbol id="1"><text x="69.138" y="1.67" class="f">&amp;</text><text x="70.14" y="1.67" class="g">&amp;</text><text x="71.142" y="1.67" class="f">&amp;</text><text x="72.144" y="1.67" class="f">&amp;</text></symbol><symbol id="2"><text x="68.136" y="1.67" class="f">&amp;&amp;</text><text x="71.142" y="1.67" class="h">&amp;</text><text x="72.144" y="1.67" class="f">&amp;</text><text x="73.146" y="1.67" class="g">&amp;</text><text x="74.148" y="1.67" class="f">&amp;&amp;&amp;</text><text x="80.16" y="1.67" class="f">&amp;&amp;</text><text x="82.164" y="1.67" class="h">&amp;</text><text x="83.166" y="1.67" class="i">&amp;</text></symbol><symbol id="3"><text x="67.134" y="1.67" class="f">&amp;&amp;</text><text x="69.138" y="1.67" class="g">&amp;</text><text x="70.14" y="1.67" class="f">&amp;&amp;</text><text x="72.144" y="1.67" class="h">/</text><text x="73.146" y="1.67" class="g">&amp;</text><text x="74.148" y="1.67" class="i">~</text><text x="75.15" y="1.67" class="f">&amp;</text><text x="76.152" y="1.67" class="g">&amp;</text><text x="77.154" y="1.67" class="f">&amp;</text><text x="78.156" y="1.67" class="f">&amp;</text><text x="79.158" y="1.67" class="g">&amp;&amp;</text><text x="81.162" y="1.67" class="f">&amp;</text><text x="82.164" y="1.67" class="i">&amp;</text><text x="84.168" y="1.67" class="g">&amp;</text><text x="85.17" y="1.67" class="f">&amp;&amp;</text></symbol><symbol id="4"><text x="71.142" y="1.67" class="f">&amp;</text><text x="72.144" y="1.67" class="h">/</text><text x="73.146" y="1.67" class="f">&amp;&amp;</text><text x="75.15" y="1.67" class="g">&amp;</text><text x="76.152" y="1.67" class="f">&amp;</text><text x="77.154" y="1.67" class="f">&amp;</text><text x="78.156" y="1.67" class="f">&amp;&amp;</text><text x="80.16" y="1.67" class="i">/</text><text x="82.164" y="1.67" class="g">&amp;</text><text x="83.166" y="1.67" class="f">&amp;</text></symbol><symbol id="5"><text x="67.134" y="1.67" class="f">&amp;</text><text x="69.138" y="1.67" class="f">&amp;</text><text x="70.14" y="1.67" class="h">\|/~</text><text x="74.148" y="1.67" class="f">&amp;</text><text x="75.15" y="1.67" class="g">&amp;</text><text x="76.152" y="1.67" class="f">&amp;</text><text x="77.154" y="1.67" class="f">&amp;</text><text x="78.156" y="1.67" class="f">&amp;</text><text x="79.158" y="1.67" class="f">&amp;</text><text x="80.16" y="1.67" class="g">&amp;</text><text x="81.162" y="1.67" class="f">&amp;</text><text x="83.166" y="1.67" class="f">&amp;</text></symbol><symbol id="6"><text x="70.14" y="1.67" class="h">\/~/_/</text><text x="76.152" y="1.67" class="i">_</text><text x="77.154" y="1.67" class="f">&amp;</text><text x="78.156" y="1.67" class="f">&amp;&amp;</text><text x="80.16" y="1.67" class="f">&amp;</text></symbol><symbol id="7"><text x="71.142" y="1.67" class="i">|/</text><text x="73.146" y="1.67" class="h">_</text><text x="74.148" y="1.67" class="i">_/</text><text x="79.158" y="1.67" class="f">&amp;&amp;</text></symbol><symbol id="8"><text x="70.14" y="1.67" class="h">/|\/</text></symbol><symbol id="9"><text x="52.104" y="1.67" class="f">&amp;&amp;</text><text x="70.14" y="1.67" class="i">|/</text><text x="72.144" y="1.67" class="h">~</text></symbol><symbol id="10"><text x="52.104" y="1.67" class="f">&amp;</text><text x="54.108" y="1.67" class="f">&amp;&amp;&amp;</text><text x="57.114" y="1.67" class="h">\</text><text x="58.116" y="1.67" class="g">&amp;&amp;</text><text x="60.12" y="1.67" class="f">&amp;</text><text x="69.138" y="1.67" class="i">/|\</text></symbol><symbol id="11"><text x="53.106" y="1.67" class="f">&amp;</text><text x="54.108" y="1.67" class="f">&amp;</text><text x="55.11" y="1.67" class="h">&amp;</text><text x="56.112" y="1.67" class="f">&amp;</text><text x="57.114" y="1.67" class="f">&amp;</text><text x="58.116" y="1.67" class="h">\_</text><text x="60.12" y="1.67" class="f">&amp;</text><text x="66.132" y="1.67" class="h">\_</text><text x="69.138" y="1.67" class="i">/|\</text></symbol><symbol id="12"><text x="53.106" y="1.67" class="f">&amp;</text><text x="54.108" y="1.67" class="h">&amp;</text><text x="55.11" y="1.67" class="f">&amp;</text><text x="56.112" y="1.67" class="f">&amp;</text><text x="58.116" y="1.67" class="g">&amp;</text><text x="59.118" y="1.67" class="f">&amp;</text><text x="60.12" y="1.67" class="i">\|</text><text x="63.126" y="1.67" class="h">\\_</text><text x="66.132" y="1.67" class="i">_</text><text x="68.136" y="1.67" class="i">\_</text><text x="70.14" y="1.67" class="h">|\</text><text x="94.188" y="1.67" class="f">&amp;</text></symbol><symbol id="13"><text x="51.102" y="1.67" class="i">&amp;</text><text x="53.106" y="1.67" class="i">&amp;</text><text x="55.11" y="1.67" class="f">&amp;</text><text x="61.122" y="1.67" class="h">\_</text><text x="64.128" y="1.67" class="i">\</text><text x="69.138" y="1.67" class="h">\|</text><text x="86.172" y="1.67" class="f">&amp;&amp;</text><text x="90.18" y="1.67" class="f">&amp;</text><text x="92.184" y="1.67" class="f">&amp;</text><text x="93.186" y="1.67" class="f">&amp;</text><text x="94.188" y="1.67" class="h">&amp;</text></symbol><symbol id="14"><text x="70.14" y="1.67" class="i">/~/</text><text x="82.164" y="1.67" class="f">&amp;</text><text x="83.166" y="1.67" class="f">&amp;&amp;</text><text x="85.17" y="1.67" class="g">&amp;</text><text x="86.172" y="1.67" class="f">&amp;&amp;</text><text x="88.176" y="1.67" class="f">&amp;</text><text x="89.178" y="1.67" class="f">&amp;&amp;</text><text x="91.182" y="1.67" class="h">_</text><text x="92.184" y="1.67" class="f">&amp;</text><text x="93.186" y="1.67" class="f">&amp;</text><text x="94.188" y="1.67" class="i">/</text><text x="95.19" y="1.67" class="f">&amp;</text></symbol><symbol id="15"><text x="69.138" y="1.67" class="i">/</text><text x="70.14" y="1.67" class="h">/~</text><text x="75.15" y="1.67" class="h">/_/</text><text x="78.156" y="1.67" class="i">_/</text><text x="83.166" y="1.67" class="f">&amp;</text><text x="84.168" y="1.67" class="i">_</text><text x="85.17" y="1.67" class="f">&amp;&amp;</text><text x="87.174" y="1.67" class="h">/</text><text x="88.176" y="1.67" class="f">&amp;&amp;</text><text x="91.182" y="1.67" class="f">&amp;</text><text x="93.186" y="1.67" class="f">&amp;</text><text x="97.194" y="1.67" class="h">&amp;</text></symbol><symbol id="16"><text x="69.138" y="1.67" class="h">/~|</text><text x="75.15" y="1.67" class="h">_/</text><text x="77.154" y="1.67" class="i">_</text><text x="78.156" y="1.67" class="h">__/_</text><text x="82.164" y="1.67" class="i">_/</text><text x="84.168" y="1.67" class="h">/</text><text x="87.174" y="1.67" class="f">&amp;</text><text x="88.176" y="1.67" class="i">/</text></symbol><symbol id="17"><text x="71.142" y="1.67" class="h">/~</text><text x="73.146" y="1.67" class="i">|/</text></symbol><symbol id="18"><text x="72.144" y="1.67" class="i">/~</text></symbol><symbol id="19"><text x="70.14" y="1.67" class="h">/~~</text></symbol><symbol id="20"><text x="57.114" y="1.67" class="j">:</text><text x="58.116" y="1.67" class="g">___________</text><text x="69.138" y="1.67" class="i">./~~~\.</text><text x="76.152" y="1.67" class="g">___________</text><text x="87.174" y="1.67" class="j">:</text></symbol><symbol id="21"><text x="58.116" y="1.67" class="j">\</text><text x="86.172" y="1.67" class="j">/</text></symbol><symbol id="22"><text x="59.118" y="1.67" class="j">\_________________________/</text></symbol><symbol id="23"><text x="59.118" y="1.67" class="j">(_)</text><text x="83.166" y="1.67" class="j">(_)</text></symbol><symbol id="a"><path fill="transparent" d="M0 0h145v39H0z"/></symbol></defs><path class="a" d="M0 0h145v84.669H0z"/><g style="animation-duration:.006s;animation-iteration-count:infinite;animation-name:l;animation-timing-function:steps(1,end)"><svg width="14355"><svg><use xlink:href="#a"/></svg><svg x="145"><use xlink:href="#a"/></svg><svg x="290"><use xlink:href="#a"/></svg><svg x="435"><use xlink:href="#a"/><use xlink:href="#1" y="34.736"/><use xlink:href="#2" y="36.907"/></svg><svg x="580"><use xlink:href="#a"/><use xlink:href="#1" y="34.736"/><use xlink:href="#2" y="36.907"/><use xlink:href="#3" y="39.078"/></svg><svg x="725"><use xlink:href="#a"/><use xlink:href="#1" y="34.736"/><use xlink:href="#2" y="36.907"/><use xlink:href="#3" y="39.078"/><use xlink:href="#4" y="41.249"/></svg><svg x="870"><use xlink:href="#a"/><use xlink:href="#1" y="34.736"/><use xlink:href="#2" y="36.907"/><use xlink:href="#3" y="39.078"/><use xlink:href="#4" y="41.249"/><use xlink:href="#5" y="43.42"/></svg><svg x="1015"><use xlink:href="#a"/><use xlink:href="#1" y="34.736"/><use xlink:href="#2" y="36.907"/><use xlink:href="#3" y="39.078"/><use xlink:href="#4" y="41.249"/><use xlink:href="#5" y="43.42"/><use xlink:href="#6" y="45.591"/><use xlink:href="#7" y="47.762"/><use xlink:href="#8" y="49.933"/><use xlink:href="#9" y="52.104"/></svg><svg x="1160"><use xlink:href="#a"/><use xlink:href="#1" y="34.736"/><use xlink:href="#2" y="36.907"/><use xlink:href="#3" y="39.078"/><use xlink:href="#4" y="41.249"/><use xlink:href="#5" y="43.42"/><use xlink:href="#6" y="45.591"/><use xlink:href="#7" y="47.762"/><use xlink:href="#8" y="49.933"/><use xlink:href="#9" y="52.104"/><text x="52.104" y="55.945" class="f">&amp;</text><text x="54.108" y="55.945" class="f">&amp;&amp;&amp;</text><text x="57.114" y="55.945" class="h">\</text><text x="58.116" y="55.945" class="g">&amp;&amp;</text><text x="60.12" y="55.945" class="f">&amp;</text></svg><svg x="1305"><use xlink:href="#a"/><use xlink:href="#1" y="34.736"/><use xlink:href="#2" y="36.907"/><use xlink:href="#3" y="39.078"/><use xlink:href="#4" y="41.249"/><use xlink:href="#5" y="43.42"/><use xlink:href="#6" y="45.591"/><use xlink:href="#7" y="47.762"/><use xlink:href="#8" y="49.933"/><use xlink:href="#9" y="52.104"/><use xlink:href="#10" y="54.275"/></svg><svg x="1450"><use xlink:href="#a"/><use xlink:href="#1" y="34.736"/><use xlink:href="#2" y="36.907"/><use xlink:href="#3" y="39.078"/><use xlink:href="#4" y="41.249"/><use xlink:href="#5" y="43.42"/><use xlink:href="#6" y="45.591"/><use xlink:href="#7" y="47.762"/><use xlink:href="#8" y="49.933"/><use xlink:href="#9" y="52.104"/><use xlink:href="#10" y="54.275"/><use xlink:href="#11" y="56.446"/></svg><svg x="1595"><use xlink:href="#a"/><use xlink:href="#1" y="34.736"/><use xlink:href="#2" y="36.907"/><use xlink:href="#3" y="39.078"/><use xlink:href="#4" y="41.249"/><use xlink:href="#5" y="43.42"/><use xlink:href="#6" y="45.591"/><use xlink:href="#7" y="47.762"/><use xlink:href="#8" y="49.933"/><use xlink:href="#9" y="52.104"/><use xlink:href="#10" y="54.275"/><use xlink:href="#11" y="56.446"/><use xlink:href="#12" y="58.617"/></svg><svg x="1740"><use xlink:href="#a"/><use xlink:href="#1" y="34.736"/><use xlink:href="#2" y="36.907"/><use xlink:href="#3" y="39.078"/><use xlink:href="#4" y="41.249"/><use xlink:href="#5" y="43.42"/><use xlink:href="#6" y="45.591"/><use xlink:href="#7" y="47.762"/><use xlink:href="#8" y="49.933"/><use xlink:href="#9" y="52.104"/><use xlink:href="#10" y="54.275"/><use xlink:href="#11" y="56.446"/><use xlink:href="#12" y="58.617"/><text x="51.102" y="62.458" class="i">&amp;</text><text x="53.106" y="62.458" class="i">&amp;</text><text x="55.11" y="62.458" class="f">&amp;</text><text x="61.122" y="62.458" class="h">\_</text><text x="64.128" y="62.458" class="i">\</text><text x="69.138" y="62.458" class="h">\|</text></svg><svg x="1885"><use xlink:href="#a"/><use xlink:href="#1" y="34.736"/><use xlink:href="#2" y="36.907"/><use xlink:href="#3" y="39.078"/><use xlink:href="#4" y="41.249"/><use xlink:href="#5" y="43.42"/><use xlink:href="#6" y="45.591"/><use xlink:href="#7" y="47.762"/><use xlink:href="#8" y="49.933"/><use xlink:href="#9" y="52.104"/><use xlink:href="#10" y="54.275"/><use xlink:href="#11" y="56.446"/><use xlink:href="#12" y="58.617"/><use xlink:href="#13" y="60.788"/><text x="70.14" y="64.629" class="i">/~/</text></svg><svg x="2030"><use xlink:href="#a"/><use xlink:href="#1" y="34.736"/><use xlink:href="#2" y="36.907"/><use xlink:href="#3" y="39.078"/><use xlink:href="#4" y="41.249"/><use xlink:href="#5" y="43.42"/><use xlink:href="#6" y="45.591"/><use xlink:href="#7" y="47.762"/><use xlink:href="#8" y="49.933"/><use xlink:href="#9" y="52.104"/><use xlink:href="#10" y="54.275"/><use xlink:href="#11" y="56.446"/><use xlink:href="#12" y="58.617"/><use xlink:href="#13" y="60.788"/><use xlink:href="#14" y="62.959"/></svg><svg x="2175"><use xlink:href="#a"/><use xlink:href="#1" y="34.736"/><use xlink:href="#2" y="36.907"/><use xlink:href="#3" y="39.078"/><use xlink:href="#4" y="41.249"/><use xlink:href="#5" y="43.42"/><use xlink:href="#6" y="45.591"/><use xlink:href="#7" y="47.762"/><use xlink:href="#8" y="49.933"/><use xlink:href="#9" y="52.104"/><use xlink:href="#10" y="54.275"/><use xlink:href="#11" y="56.446"/><use xlink:href="#12" y="58.617"/><use xlink:href="#13" y="60.788"/><use xlink:href="#14" y="62.959"/><use xlink:href="#15" y="65.13"/></svg><svg x="2320"><use xlink:href="#a"/><use xlink:href="#1" y="34.736"/><use xlink:href="#2" y="36.907"/><use xlink:href="#3" y="39.078"/><use xlink:href="#4" y="41.249"/><use xlink:href="#5" y="43.42"/><use xlink:href="#6" y="45.591"/><use xlink:href="#7" y="47.762"/><use xlink:href="#8" y="49.933"/><use xlink:href="#9" y="52.104"/><use xlink:href="#10" y="54.275"/><use xlink:href="#11" y="56.446"/><use xlink:href="#12" y="58.617"/><use xlink:href="#13" y="60.788"/><use xlink:href="#14" y="62.959"/><use xlink:href="#15" y="65.13"/><use xlink:href="#16" y="67.301"/></svg><svg x="2465"><use xlink:href="#a"/><use xlink:href="#1" y="34.736"/><use xlink:href="#2" y="36.907"/><use xlink:href="#3" y="39.078"/><use xlink:href="#4" y="41.249"/><use xlink:href="#5" y="43.42"/><use xlink:href="#6" y="45.591"/><use xlink:href="#7" y="47.762"/><use xlink:href="#8" y="49.933"/><use xlink:href="#9" y="52.104"/><use xlink:href="#10" y="54.275"/><use xlink:href="#11" y="56.446"/><use xlink:href="#12" y="58.617"/><use xlink:href="#13" y="60.788"/><use xlink:href="#14" y="62.959"/><use xlink:href="#15" y="65.13"/><use xlink:href="#16" y="67.301"/><use xlink:href="#17" y="69.472"/><use xlink:href="#18" y="71.643"/><use xlink:href="#19" y="73.814"/><use xlink:href="#20" y="75.985"/><text x="58.116" y="79.826" class="j">\</text></svg><svg x="2610"><use xlink:href="#a"/><use xlink:href="#1" y="34.736"/><use xlink:href="#2" y="36.907"/><use xlink:href="#3" y="39.078"/><use xlink:href="#4" y="41.249"/><use xlink:href="#5" y="43.42"/><use xlink:href="#6" y="45.591"/><use xlink:href="#7" y="47.762"/><use xlink:href="#8" y="49.933"/><use xlink:href="#9" y="52.104"/><use xlink:href="#10" y="54.275"/><use xlink:href="#11" y="56.446"/><use xlink:href="#12" y="58.617"/><use xlink:href="#13" y="60.788"/><use xlink:href="#14" y="62.959"/><use xlink:href="#15" y="65.13"/><use xlink:href="#16" y="67.301"/><use xlink:href="#17" y="69.472"/><use xlink:href="#18" y="71.643"/><use xlink:href="#19" y="73.814"/><use xlink:href="#20" y="75.985"/><use xlink:href="#21" y="78.156"/><use xlink:href="#22" y="80.327"/></svg><svg x="2755"><use xlink:href="#a"/><use xlink:href="#1" y="34.736"/><use xlink:href="#2" y="36.907"/><use xlink:href="#3" y="39.078"/><use xlink:href="#4" y="41.249"/><use xlink:href="#5" y="43.42"/><use xlink:href="#6" y="45.591"/><use xlink:href="#7" y="47.762"/><use xlink:href="#8" y="49.933"/><use xlink:href="#9" y="52.104"/><use xlink:href="#10" y="54.275"/><use xlink:href="#11" y="56.446"/><use xlink:href="#12" y="58.617"/><use xlink:href="#13" y="60.788"/><use xlink:href="#14" y="62.959"/><use xlink:href="#15" y="65.13"/><use xlink:href="#16" y="67.301"/><use xlink:href="#17" y="69.472"/><use xlink:href="#18" y="71.643"/><use xlink:href="#19" y="73.814"/><use xlink:href="#20" y="75.985"/><use xlink:href="#21" y="78.156"/><use xlink:href="#22" y="80.327"/><use xlink:href="#23" y="82.498"/></svg><svg x="2900"><use xlink:href="#a"/></svg><svg x="3045"><use xlink:href="#a"/></svg><svg x="3190"><use xlink:href="#a"/></svg><svg x="3335"><use xlink:href="#a"/></svg><svg x="3480"><use xlink:href="#a"/></svg><svg x="3625"><use xlink:href="#a"/></svg><svg x="3770"><use xlink:href="#a"/></svg><svg x="3915"><use xlink:href="#a"/></svg><svg x="4060"><use xlink:href="#a"/></svg><svg x="4205"><use xlink:href="#a"/></svg><svg x="4350"><use xlink:href="#a"/></svg><svg x="4495"><use xlink:href="#a"/></svg><svg x="4640"><use xlink:href="#a"/></svg><svg x="4785"><use xlink:href="#a"/></svg><svg x="4930"><use xlink:href="#a"/></svg><svg x="5075"><use xlink:href="#a"/></svg><svg x="5220"><use xlink:href="#a"/></svg><svg x="5365"><use xlink:href="#a"/></svg><svg x="5510"><use xlink:href="#a"/></svg><svg x="5655"><use xlink:href="#a"/></svg><svg x="5800"><use xlink:href="#a"/></svg><svg x="5945"><use xlink:href="#a"/></svg><svg x="6090"><use xlink:href="#a"/></svg><svg x="6235"><use xlink:href="#a"/></svg><svg x="6380"><use xlink:href="#a"/></svg><svg x="6525"><use xlink:href="#a"/></svg><svg x="6670"><use xlink:href="#a"/></svg><svg x="6815"><use xlink:href="#a"/></svg><svg x="6960"><use xlink:href="#a"/></svg><svg x="7105"><use xlink:href="#a"/></svg><svg x="7250"><use xlink:href="#a"/></svg><svg x="7395"><use xlink:href="#a"/></svg><svg x="7540"><use xlink:href="#a"/></svg><svg x="7685"><use xlink:href="#a"/><use xlink:href="#1" y="34.736"/></svg><svg x="7830"><use xlink:href="#a"/><use xlink:href="#1" y="34.736"/></svg><svg x="7975"><use xlink:href="#a"/><use xlink:href="#1" y="34.736"/><use xlink:href="#2" y="36.907"/></svg><svg x="8120"><use xlink:href="#a"/><use xlink:href="#1" y="34.736"/><use xlink:href="#2" y="36.907"/></svg><svg x="8265"><use xlink:href="#a"/><use xlink:href="#1" y="34.736"/><use xlink:href="#2" y="36.907"/><use xlink:href="#3" y="39.078"/></svg><svg x="8410"><use xlink:href="#a"/><use xlink:href="#1" y="34.736"/><use xlink:href="#2" y="36.907"/><use xlink:href="#3" y="39.078"/></svg><svg x="8555"><use xlink:href="#a"/><use xlink:href="#1" y="34.736"/><use xlink:href="#2" y="36.907"/><use xlink:href="#3" y="39.078"/><use xlink:href="#4" y="41.249"/></svg><svg x="8700"><use xlink:href="#a"/><use xlink:href="#1" y="34.736"/><use xlink:href="#2" y="36.907"/><use xlink:href="#3" y="39.078"/><use xlink:href="#4" y="41.249"/></svg><svg x="8845"><use xlink:href="#a"/><use xlink:href="#1" y="34.736"/><use xlink:href="#2" y="36.907"/><use xlink:href="#3" y="39.078"/><use xlink:href="#4" y="41.249"/><use xlink:href="#5" y="43.42"/></svg><svg x="8990"><use xlink:href="#a"/><use xlink:href="#1" y="34.736"/><use xlink:href="#2" y="36.907"/><use xlink:href="#3" y="39.078"/><use xlink:href="#4" y="41.249"/><use xlink:href="#5" y="43.42"/></svg><svg x="9135"><use xlink:href="#a"/><use xlink:href="#1" y="34.736"/><use xlink:href="#2" y="36.907"/><use xlink:href="#3" y="39.078"/><use xlink:href="#4" y="41.249"/><use xlink:href="#5" y="43.42"/><use xlink:href="#6" y="45.591"/></svg><svg x="9280"><use xlink:href="#a"/><use xlink:href="#1" y="34.736"/><use xlink:href="#2" y="36.907"/><use xlink:href="#3" y="39.078"/><use xlink:href="#4" y="41.249"/><use xlink:href="#5" y="43.42"/><use xlink:href="#6" y="45.591"/></svg><svg x="9425"><use xlink:href="#a"/><use xlink:href="#1" y="34.736"/><use xlink:href="#2" y="36.907"/><use xlink:href="#3" y="39.078"/><use xlink:href="#4" y="41.249"/><use xlink:href="#5" y="43.42"/><use xlink:href="#6" y="45.591"/><use xlink:href="#7" y="47.762"/></svg><svg x="9570"><use xlink:href="#a"/><use xlink:href="#1" y="34.736"/><use xlink:href="#2" y="36.907"/><use xlink:href="#3" y="39.078"/><use xlink:href="#4" y="41.249"/><use xlink:href="#5" y="43.42"/><use xlink:href="#6" y="45.591"/><use xlink:href="#7" y="47.762"/></svg><svg x="9715"><use xlink:href="#a"/><use xlink:href="#1" y="34.736"/><use xlink:href="#2" y="36.907"/><use xlink:href="#3" y="39.078"/><use xlink:href="#4" y="41.249"/><use xlink:href="#5" y="43.42"/><use xlink:href="#6" y="45.591"/><use xlink:href="#7" y="47.762"/><use xlink:href="#8" y="49.933"/></svg><svg x="9860"><use xlink:href="#a"/><use xlink:href="#1" y="34.736"/><use xlink:href="#2" y="36.907"/><use xlink:href="#3" y="39.078"/><use xlink:href="#4" y="41.249"/><use xlink:href="#5" y="43.42"/><use xlink:href="#6" y="45.591"/><use xlink:href="#7" y="47.762"/><use xlink:href="#8" y="49.933"/></svg><svg x="10005"><use xlink:href="#a"/><use xlink:href="#1" y="34.736"/><use xlink:href="#2" y="36.907"/><use xlink:href="#3" y="39.078"/><use xlink:href="#4" y="41.249"/><use xlink:href="#5" y="43.42"/><use xlink:href="#6" y="45.591"/><use xlink:href="#7" y="47.762"/><use xlink:href="#8" y="49.933"/><use xlink:href="#9" y="52.104"/></svg><svg x="10150"><use xlink:href="#a"/><use xlink:href="#1" y="34.736"/><use xlink:href="#2" y="36.907"/><use xlink:href="#3" y="39.078"/><use xlink:href="#4" y="41.249"/><use xlink:href="#5" y="43.42"/><use xlink:href="#6" y="45.591"/><use xlink:href="#7" y="47.762"/><use xlink:href="#8" y="49.933"/><use xlink:href="#9" y="52.104"/></svg><svg x="10295"><use xlink:href="#a"/><use xlink:href="#1" y="34.736"/><use xlink:href="#2" y="36.907"/><use xlink:href="#3" y="39.078"/><use xlink:href="#4" y="41.249"/><use xlink:href="#5" y="43.42"/><use xlink:href="#6" y="45.591"/><use xlink:href="#7" y="47.762"/><use xlink:href="#8" y="49.933"/><use xlink:href="#9" y="52.104"/><use xlink:href="#10" y="54.275"/></svg><svg x="10440"><use xlink:href="#a"/><use xlink:href="#1" y="34.736"/><use xlink:href="#2" y="36.907"/><use xlink:href="#3" y="39.078"/><use xlink:href="#4" y="41.249"/><use xlink:href="#5" y="43.42"/><use xlink:href="#6" y="45.591"/><use xlink:href="#7" y="47.762"/><use xlink:href="#8" y="49.933"/><use xlink:href="#9" y="52.104"/><use xlink:href="#10" y="54.275"/></svg><svg x="10585"><use xlink:href="#a"/><use xlink:href="#1" y="34.736"/><use xlink:href="#2" y="36.907"/><use xlink:href="#3" y="39.078"/><use xlink:href="#4" y="41.249"/><use xlink:href="#5" y="43.42"/><use xlink:href="#6" y="45.591"/><use xlink:href="#7" y="47.762"/><use xlink:href="#8" y="49.933"/><use xlink:href="#9" y="52.104"/><use xlink:href="#10" y="54.275"/><use xlink:href="#11" y="56.446"/></svg><svg x="10730"><use xlink:href="#a"/><use xlink:href="#1" y="34.736"/><use xlink:href="#2" y="36.907"/><use xlink:href="#3" y="39.078"/><use xlink:href="#4" y="41.249"/><use xlink:href="#5" y="43.42"/><use xlink:href="#6" y="45.591"/><use xlink:href="#7" y="47.762"/><use xlink:href="#8" y="49.933"/><use xlink:href="#9" y="52.104"/><use xlink:href="#10" y="54.275"/><use xlink:href="#11" y="56.446"/></svg><svg x="10875"><use xlink:href="#a"/><use xlink:href="#1" y="34.736"/><use xlink:href="#2" y="36.907"/><use xlink:href="#3" y="39.078"/><use xlink:href="#4" y="41.249"/><use xlink:href="#5" y="43.42"/><use xlink:href="#6" y="45.591"/><use xlink:href="#7" y="47.762"/><use xlink:href="#8" y="49.933"/><use xlink:href="#9" y="52.104"/><use xlink:href="#10" y="54.275"/><use xlink:href="#11" y="56.446"/><text x="53.106" y="60.287" class="f">&amp;</text><text x="54.108" y="60.287" class="h">&amp;</text><text x="55.11" y="60.287" class="f">&amp;</text><text x="56.112" y="60.287" class="f">&amp;</text><text x="58.116" y="60.287" class="g">&amp;</text><text x="59.118" y="60.287" class="f">&amp;</text><text x="60.12" y="60.287" class="i">\|</text><text x="63.126" y="60.287" class="h">\\_</text><text x="66.132" y="60.287" class="i">_</text><text x="68.136" y="60.287" class="i">\_</text><text x="70.14" y="60.287" class="h">|\</text></svg><svg x="11020"><use xlink:href="#a"/><use xlink:href="#1" y="34.736"/><use xlink:href="#2" y="36.907"/><use xlink:href="#3" y="39.078"/><use xlink:href="#4" y="41.249"/><use xlink:href="#5" y="43.42"/><use xlink:href="#6" y="45.591"/><use xlink:href="#7" y="47.762"/><use xlink:href="#8" y="49.933"/><use xlink:href="#9" y="52.104"/><use xlink:href="#10" y="54.275"/><use xlink:href="#11" y="56.446"/><use xlink:href="#12" y="58.617"/></svg><svg x="11165"><use xlink:href="#a"/><use xlink:href="#1" y="34.736"/><use xlink:href="#2" y="36.907"/><use xlink:href="#3" y="39.078"/><use xlink:href="#4" y="41.249"/><use xlink:href="#5" y="43.42"/><use xlink:href="#6" y="45.591"/><use xlink:href="#7" y="47.762"/><use xlink:href="#8" y="49.933"/><use xlink:href="#9" y="52.104"/><use xlink:href="#10" y="54.275"/><use xlink:href="#11" y="56.446"/><use xlink:href="#12" y="58.617"/><text x="51.102" y="62.458" class="i">&amp;</text><text x="53.106" y="62.458" class="i">&amp;</text><text x="55.11" y="62.458" class="f">&amp;</text><text x="61.122" y="62.458" class="h">\_</text><text x="64.128" y="62.458" class="i">\</text><text x="69.138" y="62.458" class="h">\|</text><text x="86.172" y="62.458" class="f">&amp;&amp;</text><text x="90.18" y="62.458" class="f">&amp;</text><text x="92.184" y="62.458" class="f">&amp;</text><text x="93.186" y="62.458" class="f">&amp;</text></svg><svg x="11310"><use xlink:href="#a"/><use xlink:href="#1" y="34.736"/><use xlink:href="#2" y="36.907"/><use xlink:href="#3" y="39.078"/><use xlink:href="#4" y="41.249"/><use xlink:href="#5" y="43.42"/><use xlink:href="#6" y="45.591"/><use xlink:href="#7" y="47.762"/><use xlink:href="#8" y="49.933"/><use xlink:href="#9" y="52.104"/><use xlink:href="#10" y="54.275"/><use xlink:href="#11" y="56.446"/><use xlink:href="#12" y="58.617"/><use xlink:href="#13" y="60.788"/></svg><svg x="11455"><use xlink:href="#a"/><use xlink:href="#1" y="34.736"/><use xlink:href="#2" y="36.907"/><use xlink:href="#3" y="39.078"/><use xlink:href="#4" y="41.249"/><use xlink:href="#5" y="43.42"/><use xlink:href="#6" y="45.591"/><use xlink:href="#7" y="47.762"/><use xlink:href="#8" y="49.933"/><use xlink:href="#9" y="52.104"/><use xlink:href="#10" y="54.275"/><use xlink:href="#11" y="56.446"/><use xlink:href="#12" y="58.617"/><use xlink:href="#13" y="60.788"/><text x="70.14" y="64.629" class="i">/~/</text><text x="82.164" y="64.629" class="f">&amp;</text><text x="83.166" y="64.629" class="f">&amp;&amp;</text><text x="85.17" y="64.629" class="g">&amp;</text><text x="86.172" y="64.629" class="f">&amp;&amp;</text><text x="88.176" y="64.629" class="f">&amp;</text><text x="89.178" y="64.629" class="f">&amp;&amp;</text><text x="91.182" y="64.629" class="h">_</text><text x="92.184" y="64.629" class="f">&amp;</text><text x="93.186" y="64.629" class="f">&amp;</text></svg><svg x="11600"><use xlink:href="#a"/><use xlink:href="#1" y="34.736"/><use xlink:href="#2" y="36.907"/><use xlink:href="#3" y="39.078"/><use xlink:href="#4" y="41.249"/><use xlink:href="#5" y="43.42"/><use xlink:href="#6" y="45.591"/><use xlink:href="#7" y="47.762"/><use xlink:href="#8" y="49.933"/><use xlink:href="#9" y="52.104"/><use xlink:href="#10" y="54.275"/><use xlink:href="#11" y="56.446"/><use xlink:href="#12" y="58.617"/><use xlink:href="#13" y="60.788"/><use xlink:href="#14" y="62.959"/></svg><svg x="11745"><use xlink:href="#a"/><use xlink:href="#1" y="34.736"/><use xlink:href="#2" y="36.907"/><use xlink:href="#3" y="39.078"/><use xlink:href="#4" y="41.249"/><use xlink:href="#5" y="43.42"/><use xlink:href="#6" y="45.591"/><use xlink:href="#7" y="47.762"/><use xlink:href="#8" y="49.933"/><use xlink:href="#9" y="52.104"/><use xlink:href="#10" y="54.275"/><use xlink:href="#11" y="56.446"/><use xlink:href="#12" y="58.617"/><use xlink:href="#13" y="60.788"/><use xlink:href="#14" y="62.959"/><text x="69.138" y="66.8" class="i">/</text><text x="70.14" y="66.8" class="h">/~</text><text x="75.15" y="66.8" class="h">/_/</text><text x="78.156" y="66.8" class="i">_/</text><text x="83.166" y="66.8" class="f">&amp;</text><text x="84.168" y="66.8" class="i">_</text><text x="85.17" y="66.8" class="f">&amp;&amp;</text><text x="87.174" y="66.8" class="h">/</text><text x="88.176" y="66.8" class="f">&amp;&amp;</text><text x="91.182" y="66.8" class="f">&amp;</text><text x="93.186" y="66.8" class="f">&amp;</text></svg><svg x="11890"><use xlink:href="#a"/><use xlink:href="#1" y="34.736"/><use xlink:href="#2" y="36.907"/><use xlink:href="#3" y="39.078"/><use xlink:href="#4" y="41.249"/><use xlink:href="#5" y="43.42"/><use xlink:href="#6" y="45.591"/><use xlink:href="#7" y="47.762"/><use xlink:href="#8" y="49.933"/><use xlink:href="#9" y="52.104"/><use xlink:href="#10" y="54.275"/><use xlink:href="#11" y="56.446"/><use xlink:href="#12" y="58.617"/><use xlink:href="#13" y="60.788"/><use xlink:href="#14" y="62.959"/><use xlink:href="#15" y="65.13"/></svg><svg x="12035"><use xlink:href="#a"/><use xlink:href="#1" y="34.736"/><use xlink:href="#2" y="36.907"/><use xlink:href="#3" y="39.078"/><use xlink:href="#4" y="41.249"/><use xlink:href="#5" y="43.42"/><use xlink:href="#6" y="45.591"/><use xlink:href="#7" y="47.762"/><use xlink:href="#8" y="49.933"/><use xlink:href="#9" y="52.104"/><use xlink:href="#10" y="54.275"/><use xlink:href="#11" y="56.446"/><use xlink:href="#12" y="58.617"/><use xlink:href="#13" y="60.788"/><use xlink:href="#14" y="62.959"/><use xlink:href="#15" y="65.13"/><use xlink:href="#16" y="67.301"/></svg><svg x="12180"><use xlink:href="#a"/><use xlink:href="#1" y="34.736"/><use xlink:href="#2" y="36.907"/><use xlink:href="#3" y="39.078"/><use xlink:href="#4" y="41.249"/><use xlink:href="#5" y="43.42"/><use xlink:href="#6" y="45.591"/><use xlink:href="#7" y="47.762"/><use xlink:href="#8" y="49.933"/><use xlink:href="#9" y="52.104"/><use xlink:href="#10" y="54.275"/><use xlink:href="#11" y="56.446"/><use xlink:href="#12" y="58.617"/><use xlink:href="#13" y="60.788"/><use xlink:href="#14" y="62.959"/><use xlink:href="#15" y="65.13"/><use xlink:href="#16" y="67.301"/></svg><svg x="12325"><use xlink:href="#a"/><use xlink:href="#1" y="34.736"/><use xlink:href="#2" y="36.907"/><use xlink:href="#3" y="39.078"/><use xlink:href="#4" y="41.249"/><use xlink:href="#5" y="43.42"/><use xlink:href="#6" y="45.591"/><use xlink:href="#7" y="47.762"/><use xlink:href="#8" y="49.933"/><use xlink:href="#9" y="52.104"/><use xlink:href="#10" y="54.275"/><use xlink:href="#11" y="56.446"/><use xlink:href="#12" y="58.617"/><use xlink:href="#13" y="60.788"/><use xlink:href="#14" y="62.959"/><use xlink:href="#15" y="65.13"/><use xlink:href="#16" y="67.301"/><use xlink:href="#17" y="69.472"/></svg><svg x="12470"><use xlink:href="#a"/><use xlink:href="#1" y="34.736"/><use xlink:href="#2" y="36.907"/><use xlink:href="#3" y="39.078"/><use xlink:href="#4" y="41.249"/><use xlink:href="#5" y="43.42"/><use xlink:href="#6" y="45.591"/><use xlink:href="#7" y="47.762"/><use xlink:href="#8" y="49.933"/><use xlink:href="#9" y="52.104"/><use xlink:href="#10" y="54.275"/><use xlink:href="#11" y="56.446"/><use xlink:href="#12" y="58.617"/><use xlink:href="#13" y="60.788"/><use xlink:href="#14" y="62.959"/><use xlink:href="#15" y="65.13"/><use xlink:href="#16" y="67.301"/><use xlink:href="#17" y="69.472"/></svg><svg x="12615"><use xlink:href="#a"/><use xlink:href="#1" y="34.736"/><use xlink:href="#2" y="36.907"/><use xlink:href="#3" y="39.078"/><use xlink:href="#4" y="41.249"/><use xlink:href="#5" y="43.42"/><use xlink:href="#6" y="45.591"/><use xlink:href="#7" y="47.762"/><use xlink:href="#8" y="49.933"/><use xlink:href="#9" y="52.104"/><use xlink:href="#10" y="54.275"/><use xlink:href="#11" y="56.446"/><use xlink:href="#12" y="58.617"/><use xlink:href="#13" y="60.788"/><use xlink:href="#14" y="62.959"/><use xlink:href="#15" y="65.13"/><use xlink:href="#16" y="67.301"/><use xlink:href="#17" y="69.472"/><use xlink:href="#18" y="71.643"/></svg><svg x="12760"><use xlink:href="#a"/><use xlink:href="#1" y="34.736"/><use xlink:href="#2" y="36.907"/><use xlink:href="#3" y="39.078"/><use xlink:href="#4" y="41.249"/><use xlink:href="#5" y="43.42"/><use xlink:href="#6" y="45.591"/><use xlink:href="#7" y="47.762"/><use xlink:href="#8" y="49.933"/><use xlink:href="#9" y="52.104"/><use xlink:href="#10" y="54.275"/><use xlink:href="#11" y="56.446"/><use xlink:href="#12" y="58.617"/><use xlink:href="#13" y="60.788"/><use xlink:href="#14" y="62.959"/><use xlink:href="#15" y="65.13"/><use xlink:href="#16" y="67.301"/><use xlink:href="#17" y="69.472"/><use xlink:href="#18" y="71.643"/></svg><svg x="12905"><use xlink:href="#a"/><use xlink:href="#1" y="34.736"/><use xlink:href="#2" y="36.907"/><use xlink:href="#3" y="39.078"/><use xlink:href="#4" y="41.249"/><use xlink:href="#5" y="43.42"/><use xlink:href="#6" y="45.591"/><use xlink:href="#7" y="47.762"/><use xlink:href="#8" y="49.933"/><use xlink:href="#9" y="52.104"/><use xlink:href="#10" y="54.275"/><use xlink:href="#11" y="56.446"/><use xlink:href="#12" y="58.617"/><use xlink:href="#13" y="60.788"/><use xlink:href="#14" y="62.959"/><use xlink:href="#15" y="65.13"/><use xlink:href="#16" y="67.301"/><use xlink:href="#17" y="69.472"/><use xlink:href="#18" y="71.643"/><use xlink:href="#19" y="73.814"/></svg><svg x="13050"><use xlink:href="#a"/><use xlink:href="#1" y="34.736"/><use xlink:href="#2" y="36.907"/><use xlink:href="#3" y="39.078"/><use xlink:href="#4" y="41.249"/><use xlink:href="#5" y="43.42"/><use xlink:href="#6" y="45.591"/><use xlink:href="#7" y="47.762"/><use xlink:href="#8" y="49.933"/><use xlink:href="#9" y="52.104"/><use xlink:href="#10" y="54.275"/><use xlink:href="#11" y="56.446"/><use xlink:href="#12" y="58.617"/><use xlink:href="#13" y="60.788"/><use xlink:href="#14" y="62.959"/><use xlink:href="#15" y="65.13"/><use xlink:href="#16" y="67.301"/><use xlink:href="#17" y="69.472"/><use xlink:href="#18" y="71.643"/><use xlink:href="#19" y="73.814"/></svg><svg x="13195"><use xlink:href="#a"/><use xlink:href="#1" y="34.736"/><use xlink:href="#2" y="36.907"/><use xlink:href="#3" y="39.078"/><use xlink:href="#4" y="41.249"/><use xlink:href="#5" y="43.42"/><use xlink:href="#6" y="45.591"/><use xlink:href="#7" y="47.762"/><use xlink:href="#8" y="49.933"/><use xlink:href="#9" y="52.104"/><use xlink:href="#10" y="54.275"/><use xlink:href="#11" y="56.446"/><use xlink:href="#12" y="58.617"/><use xlink:href="#13" y="60.788"/><use xlink:href="#14" y="62.959"/><use xlink:href="#15" y="65.13"/><use xlink:href="#16" y="67.301"/><use xlink:href="#17" y="69.472"/><use xlink:href="#18" y="71.643"/><use xlink:href="#19" y="73.814"/><use xlink:href="#20" y="75.985"/></svg><svg x="13340"><use xlink:href="#a"/><use xlink:href="#1" y="34.736"/><use xlink:href="#2" y="36.907"/><use xlink:href="#3" y="39.078"/><use xlink:href="#4" y="41.249"/><use xlink:href="#5" y="43.42"/><use xlink:href="#6" y="45.591"/><use xlink:href="#7" y="47.762"/><use xlink:href="#8" y="49.933"/><use xlink:href="#9" y="52.104"/><use xlink:href="#10" y="54.275"/><use xlink:href="#11" y="56.446"/><use xlink:href="#12" y="58.617"/><use xlink:href="#13" y="60.788"/><use xlink:href="#14" y="62.959"/><use xlink:href="#15" y="65.13"/><use xlink:href="#16" y="67.301"/><use xlink:href="#17" y="69.472"/><use xlink:href="#18" y="71.643"/><use xlink:href="#19" y="73.814"/><use xlink:href="#20" y="75.985"/></svg><svg x="13485"><use xlink:href="#a"/><use xlink:href="#1" y="34.736"/><use xlink:href="#2" y="36.907"/><use xlink:href="#3" y="39.078"/><use xlink:href="#4" y="41.249"/><use xlink:href="#5" y="43.42"/><use xlink:href="#6" y="45.591"/><use xlink:href="#7" y="47.762"/><use xlink:href="#8" y="49.933"/><use xlink:href="#9" y="52.104"/><use xlink:href="#10" y="54.275"/><use xlink:href="#11" y="56.446"/><use xlink:href="#12" y="58.617"/><use xlink:href="#13" y="60.788"/><use xlink:href="#14" y="62.959"/><use xlink:href="#15" y="65.13"/><use xlink:href="#16" y="67.301"/><use xlink:href="#17" y="69.472"/><use xlink:href="#18" y="71.643"/><use xlink:href="#19" y="73.814"/><use xlink:href="#20" y="75.985"/><use xlink:href="#21" y="78.156"/></svg><svg x="13630"><use xlink:href="#a"/><use xlink:href="#1" y="34.736"/><use xlink:href="#2" y="36.907"/><use xlink:href="#3" y="39.078"/><use xlink:href="#4" y="41.249"/><use xlink:href="#5" y="43.42"/><use xlink:href="#6" y="45.591"/><use xlink:href="#7" y="47.762"/><use xlink:href="#8" y="49.933"/><use xlink:href="#9" y="52.104"/><use xlink:href="#10" y="54.275"/><use xlink:href="#11" y="56.446"/><use xlink:href="#12" y="58.617"/><use xlink:href="#13" y="60.788"/><use xlink:href="#14" y="62.959"/><use xlink:href="#15" y="65.13"/><use xlink:href="#16" y="67.301"/><use xlink:href="#17" y="69.472"/><use xlink:href="#18" y="71.643"/><use xlink:href="#19" y="73.814"/><use xlink:href="#20" y="75.985"/><use xlink:href="#21" y="78.156"/></svg><svg x="13775"><use xlink:href="#a"/><use xlink:href="#1" y="34.736"/><use xlink:href="#2" y="36.907"/><use xlink:href="#3" y="39.078"/><use xlink:href="#4" y="41.249"/><use xlink:href="#5" y="43.42"/><use xlink:href="#6" y="45.591"/><use xlink:href="#7" y="47.762"/><use xlink:href="#8" y="49.933"/><use xlink:href="#9" y="52.104"/><use xlink:href="#10" y="54.275"/><use xlink:href="#11" y="56.446"/><use xlink:href="#12" y="58.617"/><use xlink:href="#13" y="60.788"/><use xlink:href="#14" y="62.959"/><use xlink:href="#15" y="65.13"/><use xlink:href="#16" y="67.301"/><use xlink:href="#17" y="69.472"/><use xlink:href="#18" y="71.643"/><use xlink:href="#19" y="73.814"/><use xlink:href="#20" y="75.985"/><use xlink:href="#21" y="78.156"/><use xlink:href="#22" y="80.327"/></svg><svg x="13920"><use xlink:href="#a"/><use xlink:href="#1" y="34.736"/><use xlink:href="#2" y="36.907"/><use xlink:href="#3" y="39.078"/><use xlink:href="#4" y="41.249"/><use xlink:href="#5" y="43.42"/><use xlink:href="#6" y="45.591"/><use xlink:href="#7" y="47.762"/><use xlink:href="#8" y="49.933"/><use xlink:href="#9" y="52.104"/><use xlink:href="#10" y="54.275"/><use xlink:href="#11" y="56.446"/><use xlink:href="#12" y="58.617"/><use xlink:href="#13" y="60.788"/><use xlink:href="#14" y="62.959"/><use xlink:href="#15" y="65.13"/><use xlink:href="#16" y="67.301"/><use xlink:href="#17" y="69.472"/><use xlink:href="#18" y="71.643"/><use xlink:href="#19" y="73.814"/><use xlink:href="#20" y="75.985"/><use xlink:href="#21" y="78.156"/><use xlink:href="#22" y="80.327"/></svg><svg x="14065"><use xlink:href="#a"/><use xlink:href="#1" y="34.736"/><use xlink:href="#2" y="36.907"/><use xlink:href="#3" y="39.078"/><use xlink:href="#4" y="41.249"/><use xlink:href="#5" y="43.42"/><use xlink:href="#6" y="45.591"/><use xlink:href="#7" y="47.762"/><use xlink:href="#8" y="49.933"/><use xlink:href="#9" y="52.104"/><use xlink:href="#10" y="54.275"/><use xlink:href="#11" y="56.446"/><use xlink:href="#12" y="58.617"/><use xlink:href="#13" y="60.788"/><use xlink:href="#14" y="62.959"/><use xlink:href="#15" y="65.13"/><use xlink:href="#16" y="67.301"/><use xlink:href="#17" y="69.472"/><use xlink:href="#18" y="71.643"/><use xlink:href="#19" y="73.814"/><use xlink:href="#20" y="75.985"/><use xlink:href="#21" y="78.156"/><use xlink:href="#22" y="80.327"/><use xlink:href="#23" y="82.498"/></svg><svg x="14210"><use xlink:href="#a"/><use xlink:href="#1" y="30.394"/><use xlink:href="#2" y="32.565"/><use xlink:href="#3" y="34.736"/><use xlink:href="#4" y="36.907"/><use xlink:href="#5" y="39.078"/><use xlink:href="#6" y="41.249"/><use xlink:href="#7" y="43.42"/><use xlink:href="#8" y="45.591"/><use xlink:href="#9" y="47.762"/><use xlink:href="#10" y="49.933"/><use xlink:href="#11" y="52.104"/><use xlink:href="#12" y="54.275"/><use xlink:href="#13" y="56.446"/><use xlink:href="#14" y="58.617"/><use xlink:href="#15" y="60.788"/><use xlink:href="#16" y="62.959"/><use xlink:href="#17" y="65.13"/><use xlink:href="#18" y="67.301"/><use xlink:href="#19" y="69.472"/><use xlink:href="#20" y="71.643"/><use xlink:href="#21" y="73.814"/><use xlink:href="#22" y="75.985"/><use xlink:href="#23" y="78.156"/></svg></svg></g></g></svg></svg>