<svg xmlns="http://www.w3.org/2000/svg" xmlns:xlink="http://www.w3.org/1999/xlink" width="1440" height="928.4"><rect width="1440" height="928.4" rx="5" ry="5" class="a"/><svg y="0%" x="0%"><circle cx="20" cy="20" r="6" fill="#ff5f58"/><circle cx="40" cy="20" r="6" fill="#ffbd2e"/><circle cx="60" cy="20" r="6" fill="#18c132"/></svg><svg height="868.4" viewBox="0 0 140 86.84" width="1400" x="15" xmlns="http://www.w3.org/2000/svg" xmlns:xlink="http://www.w3.org/1999/xlink" y="50"><style>.a{fill:#282d35}.f{fill:#b9c0cb;white-space:pre}.g{fill:#a8cc8c}.g,.h,.i,.j,.k{white-space:pre}.h{fill:#a8cc8c;font-weight:700}.i,.j,.k{fill:#dbab79}.j,.k{font-weight:700}.k{fill:#6f7783}</style><g font-family="Monaco,Consolas,Menlo,'Bitstream Vera Sans Mono','Powerline Symbols',monospace" font-size="1.67"><defs><symbol id="1"><text y="1.67" class="f">/usr/lib/Xorg.wrap:</text><text x="20.04" y="1.67" class="f">Only</text><text x="25.05" y="1.67" class="f">console</text><text x="33.066" y="1.67" class="f">users</text><text x="39.078" y="1.67" class="f">are</text><text x="43.086" y="1.67" class="f">allowed</text><text x="51.102" y="1.67" class="f">to</text><text x="54.108" y="1.67" class="f">run</text><text x="58.116" y="1.67" class="f">the</text><text x="62.124" y="1.67" class="f">X</text><text x="64.128" y="1.67" class="f">server</text></symbol><symbol id="2"><text y="1.67" class="f">xinit:</text><text x="7.014" y="1.67" class="f">giving</text><text x="14.028" y="1.67" class="f">up</text></symbol><symbol id="3"><text y="1.67" class="f">xinit:</text><text x="7.014" y="1.67" class="f">unable</text><text x="14.028" y="1.67" class="f">to</text><text x="17.034" y="1.67" class="f">connect</text><text x="25.05" y="1.67" class="f">to</text><text x="28.056" y="1.67" class="f">X</text><text x="30.06" y="1.67" class="f">server:</text><text x="38.076" y="1.67" class="f">Connection</text><text x="49.098" y="1.67" class="f">refused</text></symbol><symbol id="4"><text y="1.67" class="f">xinit:</text><text x="7.014" y="1.67" class="f">server</text><text x="14.028" y="1.67" class="f">error</text></symbol><symbol id="5"><text y="1.67" class="f">Couldn&apos;t</text><text x="9.018" y="1.67" class="f">get</text><text x="13.026" y="1.67" class="f">a</text><text x="15.03" y="1.67" class="f">file</text><text x="20.04" y="1.67" class="f">descriptor</text><text x="31.062" y="1.67" class="f">referring</text><text x="41.082" y="1.67" class="f">to</text><text x="44.088" y="1.67" class="f">the</text><text x="48.096" y="1.67" class="f">console.</text></symbol><symbol id="6"><text x="70.14" y="1.67" class="g">&amp;</text><text x="71.142" y="1.67" class="h">&amp;</text><text x="72.144" y="1.67" class="g">&amp;</text><text x="73.146" y="1.67" class="g">&amp;</text></symbol><symbol id="7"><text x="70.14" y="1.67" class="h">&amp;</text><text x="71.142" y="1.67" class="i">&amp;&amp;</text><text x="73.146" y="1.67" class="g">&amp;</text><text x="74.148" y="1.67" class="h">&amp;</text></symbol><symbol id="8"><text x="70.14" y="1.67" class="g">&amp;</text><text x="71.142" y="1.67" class="h">&amp;&amp;</text><text x="73.146" y="1.67" class="g">&amp;</text><text x="74.148" y="1.67" class="g">&amp;</text><text x="76.152" y="1.67" class="g">&amp;</text></symbol><symbol id="9"><text x="68.136" y="1.67" class="g">&amp;&amp;&amp;</text><text x="71.142" y="1.67" class="g">&amp;</text><text x="72.144" y="1.67" class="h">&amp;</text><text x="73.146" y="1.67" class="i">/</text><text x="74.148" y="1.67" class="h">&amp;</text><text x="75.15" y="1.67" class="h">&amp;</text><text x="76.152" y="1.67" class="g">&amp;</text></symbol><symbol id="10"><text x="70.14" y="1.67" class="i">|</text><text x="71.142" y="1.67" class="j">/~</text><text x="74.148" y="1.67" class="g">&amp;</text><text x="75.15" y="1.67" class="g">&amp;&amp;</text><text x="77.154" y="1.67" class="g">&amp;</text></symbol><symbol id="11"><text x="69.138" y="1.67" class="i">/~</text><text x="76.152" y="1.67" class="h">&amp;</text><text x="77.154" y="1.67" class="g">&amp;</text><text x="83.166" y="1.67" class="g">&amp;</text><text x="84.168" y="1.67" class="g">&amp;&amp;</text></symbol><symbol id="12"><text x="70.14" y="1.67" class="j">/~|\</text><text x="77.154" y="1.67" class="g">&amp;&amp;&amp;</text><text x="80.16" y="1.67" class="g">&amp;&amp;</text><text x="82.164" y="1.67" class="j">&amp;</text><text x="83.166" y="1.67" class="g">&amp;</text><text x="84.168" y="1.67" class="j">/</text><text x="85.17" y="1.67" class="h">&amp;</text></symbol><symbol id="13"><text x="71.142" y="1.67" class="i">|/</text><text x="75.15" y="1.67" class="j">\|</text><text x="77.154" y="1.67" class="i">_/</text><text x="79.158" y="1.67" class="g">&amp;</text><text x="80.16" y="1.67" class="i">/</text><text x="81.162" y="1.67" class="g">&amp;</text><text x="82.164" y="1.67" class="g">&amp;</text><text x="83.166" y="1.67" class="h">&amp;</text><text x="84.168" y="1.67" class="i">&amp;&amp;</text></symbol><symbol id="14"><text x="69.138" y="1.67" class="j">/</text><text x="70.14" y="1.67" class="i">/~</text><text x="76.152" y="1.67" class="j">_/</text><text x="81.162" y="1.67" class="h">&amp;</text><text x="85.17" y="1.67" class="h">&amp;</text></symbol><symbol id="15"><text x="68.136" y="1.67" class="j">\|</text><text x="71.142" y="1.67" class="i">/</text><text x="72.144" y="1.67" class="j">_/_</text><text x="75.15" y="1.67" class="i">_/</text></symbol><symbol id="16"><text x="69.138" y="1.67" class="j">|/</text></symbol><symbol id="17"><text x="67.134" y="1.67" class="j">\/~</text></symbol><symbol id="18"><text x="50.1" y="1.67" class="g">&amp;&amp;&amp;</text><text x="69.138" y="1.67" class="i">/~</text><text x="71.142" y="1.67" class="j">/</text></symbol><symbol id="19"><text x="49.098" y="1.67" class="g">&amp;</text><text x="50.1" y="1.67" class="h">&amp;</text><text x="51.102" y="1.67" class="h">&amp;</text><text x="52.104" y="1.67" class="g">&amp;</text><text x="68.136" y="1.67" class="j">/~</text></symbol><symbol id="20"><text x="42.084" y="1.67" class="g">&amp;</text><text x="50.1" y="1.67" class="g">&amp;</text><text x="51.102" y="1.67" class="h">&amp;</text><text x="66.132" y="1.67" class="i">/~|</text></symbol><symbol id="21"><text x="43.086" y="1.67" class="j">&amp;</text><text x="45.09" y="1.67" class="g">&amp;&amp;</text><text x="47.094" y="1.67" class="g">&amp;</text><text x="51.102" y="1.67" class="g">&amp;</text><text x="64.128" y="1.67" class="i">\|</text><text x="67.134" y="1.67" class="i">\</text><text x="68.136" y="1.67" class="j">/~\|</text></symbol><symbol id="22"><text x="42.084" y="1.67" class="g">&amp;</text><text x="43.086" y="1.67" class="g">&amp;&amp;</text><text x="45.09" y="1.67" class="h">&amp;</text><text x="46.092" y="1.67" class="g">&amp;</text><text x="47.094" y="1.67" class="h">&amp;</text><text x="48.096" y="1.67" class="g">&amp;</text><text x="49.098" y="1.67" class="i">_</text><text x="50.1" y="1.67" class="j">___</text><text x="53.106" y="1.67" class="i">\_</text><text x="55.11" y="1.67" class="j">\_____\_</text><text x="65.13" y="1.67" class="i">\___/~</text><text x="71.142" y="1.67" class="j">/~</text></symbol><symbol id="23"><text x="55.11" y="1.67" class="k">:</text><text x="56.112" y="1.67" class="h">___________</text><text x="67.134" y="1.67" class="j">./~~~\.</text><text x="74.148" y="1.67" class="h">___________</text><text x="85.17" y="1.67" class="k">:</text></symbol><symbol id="24"><text x="56.112" y="1.67" class="k">\</text><text x="84.168" y="1.67" class="k">/</text></symbol><symbol id="25"><text x="57.114" y="1.67" class="k">\_________________________/</text></symbol><symbol id="26"><text x="57.114" y="1.67" class="k">(_)</text><text x="81.162" y="1.67" class="k">(_)</text></symbol><symbol id="a"><path fill="transparent" d="M0 0h140v40H0z"/></symbol></defs><path class="a" d="M0 0h140v86.84H0z"/><svg width="3780"><svg><use xlink:href="#a"/><use xlink:href="#1" y="2.171"/><use xlink:href="#2" y="4.342"/><use xlink:href="#3" y="6.513"/><use xlink:href="#4" y="8.684"/><use xlink:href="#5" y="10.855"/><use xlink:href="#6" y="54.275"/><use xlink:href="#7" y="56.446"/><use xlink:href="#8" y="58.617"/><use xlink:href="#9" y="60.788"/><use xlink:href="#10" y="62.959"/><use xlink:href="#11" y="65.13"/><use xlink:href="#12" y="67.301"/><use xlink:href="#13" y="69.472"/></svg><svg x="140"><use xlink:href="#a"/><use xlink:href="#1" y="2.171"/><use xlink:href="#2" y="4.342"/><use xlink:href="#3" y="6.513"/><use xlink:href="#4" y="8.684"/><use xlink:href="#5" y="10.855"/><use xlink:href="#6" y="54.275"/><use xlink:href="#7" y="56.446"/><use xlink:href="#8" y="58.617"/><use xlink:href="#9" y="60.788"/><use xlink:href="#10" y="62.959"/><use xlink:href="#11" y="65.13"/><use xlink:href="#12" y="67.301"/><use xlink:href="#13" y="69.472"/><use xlink:href="#14" y="71.643"/></svg><svg x="280"><use xlink:href="#a"/><use xlink:href="#1" y="2.171"/><use xlink:href="#2" y="4.342"/><use xlink:href="#3" y="6.513"/><use xlink:href="#4" y="8.684"/><use xlink:href="#5" y="10.855"/><use xlink:href="#6" y="54.275"/><use xlink:href="#7" y="56.446"/><use xlink:href="#8" y="58.617"/><use xlink:href="#9" y="60.788"/><use xlink:href="#10" y="62.959"/><use xlink:href="#11" y="65.13"/><use xlink:href="#12" y="67.301"/><use xlink:href="#13" y="69.472"/><use xlink:href="#14" y="71.643"/></svg><svg x="420"><use xlink:href="#a"/><use xlink:href="#1" y="2.171"/><use xlink:href="#2" y="4.342"/><use xlink:href="#3" y="6.513"/><use xlink:href="#4" y="8.684"/><use xlink:href="#5" y="10.855"/><use xlink:href="#6" y="54.275"/><use xlink:href="#7" y="56.446"/><use xlink:href="#8" y="58.617"/><use xlink:href="#9" y="60.788"/><use xlink:href="#10" y="62.959"/><use xlink:href="#11" y="65.13"/><use xlink:href="#12" y="67.301"/><use xlink:href="#13" y="69.472"/><use xlink:href="#14" y="71.643"/><use xlink:href="#15" y="73.814"/></svg><svg x="560"><use xlink:href="#a"/><use xlink:href="#1" y="2.171"/><use xlink:href="#2" y="4.342"/><use xlink:href="#3" y="6.513"/><use xlink:href="#4" y="8.684"/><use xlink:href="#5" y="10.855"/><use xlink:href="#6" y="54.275"/><use xlink:href="#7" y="56.446"/><use xlink:href="#8" y="58.617"/><use xlink:href="#9" y="60.788"/><use xlink:href="#10" y="62.959"/><use xlink:href="#11" y="65.13"/><use xlink:href="#12" y="67.301"/><use xlink:href="#13" y="69.472"/><use xlink:href="#14" y="71.643"/><use xlink:href="#15" y="73.814"/></svg><svg x="700"><use xlink:href="#a"/><use xlink:href="#1" y="2.171"/><use xlink:href="#2" y="4.342"/><use xlink:href="#3" y="6.513"/><use xlink:href="#4" y="8.684"/><use xlink:href="#5" y="10.855"/><use xlink:href="#6" y="54.275"/><use xlink:href="#7" y="56.446"/><use xlink:href="#8" y="58.617"/><use xlink:href="#9" y="60.788"/><use xlink:href="#10" y="62.959"/><use xlink:href="#11" y="65.13"/><use xlink:href="#12" y="67.301"/><use xlink:href="#13" y="69.472"/><use xlink:href="#14" y="71.643"/><use xlink:href="#15" y="73.814"/><use xlink:href="#16" y="75.985"/></svg><svg x="840"><use xlink:href="#a"/><use xlink:href="#1" y="2.171"/><use xlink:href="#2" y="4.342"/><use xlink:href="#3" y="6.513"/><use xlink:href="#4" y="8.684"/><use xlink:href="#5" y="10.855"/><use xlink:href="#6" y="54.275"/><use xlink:href="#7" y="56.446"/><use xlink:href="#8" y="58.617"/><use xlink:href="#9" y="60.788"/><use xlink:href="#10" y="62.959"/><use xlink:href="#11" y="65.13"/><use xlink:href="#12" y="67.301"/><use xlink:href="#13" y="69.472"/><use xlink:href="#14" y="71.643"/><use xlink:href="#15" y="73.814"/><use xlink:href="#16" y="75.985"/></svg><svg x="980"><use xlink:href="#a"/><use xlink:href="#1" y="2.171"/><use xlink:href="#2" y="4.342"/><use xlink:href="#3" y="6.513"/><use xlink:href="#4" y="8.684"/><use xlink:href="#5" y="10.855"/><use xlink:href="#6" y="54.275"/><use xlink:href="#7" y="56.446"/><use xlink:href="#8" y="58.617"/><use xlink:href="#9" y="60.788"/><use xlink:href="#10" y="62.959"/><use xlink:href="#11" y="65.13"/><use xlink:href="#12" y="67.301"/><use xlink:href="#13" y="69.472"/><use xlink:href="#14" y="71.643"/><use xlink:href="#15" y="73.814"/><use xlink:href="#16" y="75.985"/><use xlink:href="#17" y="78.156"/></svg><svg x="1120"><use xlink:href="#a"/><use xlink:href="#1" y="2.171"/><use xlink:href="#2" y="4.342"/><use xlink:href="#3" y="6.513"/><use xlink:href="#4" y="8.684"/><use xlink:href="#5" y="10.855"/><use xlink:href="#6" y="54.275"/><use xlink:href="#7" y="56.446"/><use xlink:href="#8" y="58.617"/><use xlink:href="#9" y="60.788"/><use xlink:href="#10" y="62.959"/><use xlink:href="#11" y="65.13"/><use xlink:href="#12" y="67.301"/><use xlink:href="#13" y="69.472"/><use xlink:href="#14" y="71.643"/><use xlink:href="#15" y="73.814"/><use xlink:href="#16" y="75.985"/><use xlink:href="#17" y="78.156"/></svg><svg x="1260"><use xlink:href="#a"/><use xlink:href="#1" y="2.171"/><use xlink:href="#2" y="4.342"/><use xlink:href="#3" y="6.513"/><use xlink:href="#4" y="8.684"/><use xlink:href="#5" y="10.855"/><use xlink:href="#6" y="54.275"/><use xlink:href="#7" y="56.446"/><use xlink:href="#8" y="58.617"/><use xlink:href="#9" y="60.788"/><use xlink:href="#10" y="62.959"/><use xlink:href="#11" y="65.13"/><use xlink:href="#12" y="67.301"/><use xlink:href="#13" y="69.472"/><use xlink:href="#14" y="71.643"/><use xlink:href="#15" y="73.814"/><use xlink:href="#16" y="75.985"/><use xlink:href="#17" y="78.156"/><use xlink:href="#18" y="80.327"/></svg><svg x="1400"><use xlink:href="#a"/><use xlink:href="#1" y="2.171"/><use xlink:href="#2" y="4.342"/><use xlink:href="#3" y="6.513"/><use xlink:href="#4" y="8.684"/><use xlink:href="#5" y="10.855"/><use xlink:href="#6" y="54.275"/><use xlink:href="#7" y="56.446"/><use xlink:href="#8" y="58.617"/><use xlink:href="#9" y="60.788"/><use xlink:href="#10" y="62.959"/><use xlink:href="#11" y="65.13"/><use xlink:href="#12" y="67.301"/><use xlink:href="#13" y="69.472"/><use xlink:href="#14" y="71.643"/><use xlink:href="#15" y="73.814"/><use xlink:href="#16" y="75.985"/><use xlink:href="#17" y="78.156"/><use xlink:href="#18" y="80.327"/></svg><svg x="1540"><use xlink:href="#a"/><use xlink:href="#1" y="2.171"/><use xlink:href="#2" y="4.342"/><use xlink:href="#3" y="6.513"/><use xlink:href="#4" y="8.684"/><use xlink:href="#5" y="10.855"/><use xlink:href="#6" y="54.275"/><use xlink:href="#7" y="56.446"/><use xlink:href="#8" y="58.617"/><use xlink:href="#9" y="60.788"/><use xlink:href="#10" y="62.959"/><use xlink:href="#11" y="65.13"/><use xlink:href="#12" y="67.301"/><use xlink:href="#13" y="69.472"/><use xlink:href="#14" y="71.643"/><use xlink:href="#15" y="73.814"/><use xlink:href="#16" y="75.985"/><use xlink:href="#17" y="78.156"/><use xlink:href="#18" y="80.327"/><use xlink:href="#19" y="82.498"/></svg><svg x="1680"><use xlink:href="#a"/><use xlink:href="#1" y="2.171"/><use xlink:href="#2" y="4.342"/><use xlink:href="#3" y="6.513"/><use xlink:href="#4" y="8.684"/><use xlink:href="#5" y="10.855"/><use xlink:href="#6" y="54.275"/><use xlink:href="#7" y="56.446"/><use xlink:href="#8" y="58.617"/><use xlink:href="#9" y="60.788"/><use xlink:href="#10" y="62.959"/><use xlink:href="#11" y="65.13"/><use xlink:href="#12" y="67.301"/><use xlink:href="#13" y="69.472"/><use xlink:href="#14" y="71.643"/><use xlink:href="#15" y="73.814"/><use xlink:href="#16" y="75.985"/><use xlink:href="#17" y="78.156"/><use xlink:href="#18" y="80.327"/><use xlink:href="#19" y="82.498"/></svg><svg x="1820"><use xlink:href="#a"/><use xlink:href="#1" y="2.171"/><use xlink:href="#2" y="4.342"/><use xlink:href="#3" y="6.513"/><use xlink:href="#4" y="8.684"/><use xlink:href="#5" y="10.855"/><use xlink:href="#6" y="54.275"/><use xlink:href="#7" y="56.446"/><use xlink:href="#8" y="58.617"/><use xlink:href="#9" y="60.788"/><use xlink:href="#10" y="62.959"/><use xlink:href="#11" y="65.13"/><use xlink:href="#12" y="67.301"/><use xlink:href="#13" y="69.472"/><use xlink:href="#14" y="71.643"/><use xlink:href="#15" y="73.814"/><use xlink:href="#16" y="75.985"/><use xlink:href="#17" y="78.156"/><use xlink:href="#18" y="80.327"/><use xlink:href="#19" y="82.498"/><use xlink:href="#20" y="84.669"/></svg><svg x="1960"><use xlink:href="#a"/><use xlink:href="#1"/><use xlink:href="#2" y="2.171"/><use xlink:href="#3" y="4.342"/><use xlink:href="#4" y="6.513"/><use xlink:href="#5" y="8.684"/><use xlink:href="#6" y="52.104"/><use xlink:href="#7" y="54.275"/><use xlink:href="#8" y="56.446"/><use xlink:href="#9" y="58.617"/><use xlink:href="#10" y="60.788"/><use xlink:href="#11" y="62.959"/><use xlink:href="#12" y="65.13"/><use xlink:href="#13" y="67.301"/><use xlink:href="#14" y="69.472"/><use xlink:href="#15" y="71.643"/><use xlink:href="#16" y="73.814"/><use xlink:href="#17" y="75.985"/><use xlink:href="#18" y="78.156"/><use xlink:href="#19" y="80.327"/><use xlink:href="#20" y="82.498"/></svg><svg x="2100"><use xlink:href="#a"/><use xlink:href="#1"/><use xlink:href="#2" y="2.171"/><use xlink:href="#3" y="4.342"/><use xlink:href="#4" y="6.513"/><use xlink:href="#5" y="8.684"/><use xlink:href="#6" y="52.104"/><use xlink:href="#7" y="54.275"/><use xlink:href="#8" y="56.446"/><use xlink:href="#9" y="58.617"/><use xlink:href="#10" y="60.788"/><use xlink:href="#11" y="62.959"/><use xlink:href="#12" y="65.13"/><use xlink:href="#13" y="67.301"/><use xlink:href="#14" y="69.472"/><use xlink:href="#15" y="71.643"/><use xlink:href="#16" y="73.814"/><use xlink:href="#17" y="75.985"/><use xlink:href="#18" y="78.156"/><use xlink:href="#19" y="80.327"/><use xlink:href="#20" y="82.498"/><use xlink:href="#21" y="84.669"/></svg><svg x="2240"><use xlink:href="#a"/><use xlink:href="#2"/><use xlink:href="#3" y="2.171"/><use xlink:href="#4" y="4.342"/><use xlink:href="#5" y="6.513"/><use xlink:href="#6" y="49.933"/><use xlink:href="#7" y="52.104"/><use xlink:href="#8" y="54.275"/><use xlink:href="#9" y="56.446"/><use xlink:href="#10" y="58.617"/><use xlink:href="#11" y="60.788"/><use xlink:href="#12" y="62.959"/><use xlink:href="#13" y="65.13"/><use xlink:href="#14" y="67.301"/><use xlink:href="#15" y="69.472"/><use xlink:href="#16" y="71.643"/><use xlink:href="#17" y="73.814"/><use xlink:href="#18" y="75.985"/><use xlink:href="#19" y="78.156"/><use xlink:href="#20" y="80.327"/><use xlink:href="#21" y="82.498"/></svg><svg x="2380"><use xlink:href="#a"/><use xlink:href="#2"/><use xlink:href="#3" y="2.171"/><use xlink:href="#4" y="4.342"/><use xlink:href="#5" y="6.513"/><use xlink:href="#6" y="49.933"/><use xlink:href="#7" y="52.104"/><use xlink:href="#8" y="54.275"/><use xlink:href="#9" y="56.446"/><use xlink:href="#10" y="58.617"/><use xlink:href="#11" y="60.788"/><use xlink:href="#12" y="62.959"/><use xlink:href="#13" y="65.13"/><use xlink:href="#14" y="67.301"/><use xlink:href="#15" y="69.472"/><use xlink:href="#16" y="71.643"/><use xlink:href="#17" y="73.814"/><use xlink:href="#18" y="75.985"/><use xlink:href="#19" y="78.156"/><use xlink:href="#20" y="80.327"/><use xlink:href="#21" y="82.498"/><use xlink:href="#22" y="84.669"/></svg><svg x="2520"><use xlink:href="#a"/><use xlink:href="#3"/><use xlink:href="#4" y="2.171"/><use xlink:href="#5" y="4.342"/><use xlink:href="#6" y="47.762"/><use xlink:href="#7" y="49.933"/><use xlink:href="#8" y="52.104"/><use xlink:href="#9" y="54.275"/><use xlink:href="#10" y="56.446"/><use xlink:href="#11" y="58.617"/><use xlink:href="#12" y="60.788"/><use xlink:href="#13" y="62.959"/><use xlink:href="#14" y="65.13"/><use xlink:href="#15" y="67.301"/><use xlink:href="#16" y="69.472"/><use xlink:href="#17" y="71.643"/><use xlink:href="#18" y="73.814"/><use xlink:href="#19" y="75.985"/><use xlink:href="#20" y="78.156"/><use xlink:href="#21" y="80.327"/><use xlink:href="#22" y="82.498"/></svg><svg x="2660"><use xlink:href="#a"/><use xlink:href="#3"/><use xlink:href="#4" y="2.171"/><use xlink:href="#5" y="4.342"/><use xlink:href="#6" y="47.762"/><use xlink:href="#7" y="49.933"/><use xlink:href="#8" y="52.104"/><use xlink:href="#9" y="54.275"/><use xlink:href="#10" y="56.446"/><use xlink:href="#11" y="58.617"/><use xlink:href="#12" y="60.788"/><use xlink:href="#13" y="62.959"/><use xlink:href="#14" y="65.13"/><use xlink:href="#15" y="67.301"/><use xlink:href="#16" y="69.472"/><use xlink:href="#17" y="71.643"/><use xlink:href="#18" y="73.814"/><use xlink:href="#19" y="75.985"/><use xlink:href="#20" y="78.156"/><use xlink:href="#21" y="80.327"/><use xlink:href="#22" y="82.498"/><use xlink:href="#23" y="84.669"/></svg><svg x="2800"><use xlink:href="#a"/><use xlink:href="#4"/><use xlink:href="#5" y="2.171"/><use xlink:href="#6" y="45.591"/><use xlink:href="#7" y="47.762"/><use xlink:href="#8" y="49.933"/><use xlink:href="#9" y="52.104"/><use xlink:href="#10" y="54.275"/><use xlink:href="#11" y="56.446"/><use xlink:href="#12" y="58.617"/><use xlink:href="#13" y="60.788"/><use xlink:href="#14" y="62.959"/><use xlink:href="#15" y="65.13"/><use xlink:href="#16" y="67.301"/><use xlink:href="#17" y="69.472"/><use xlink:href="#18" y="71.643"/><use xlink:href="#19" y="73.814"/><use xlink:href="#20" y="75.985"/><use xlink:href="#21" y="78.156"/><use xlink:href="#22" y="80.327"/><use xlink:href="#23" y="82.498"/></svg><svg x="2940"><use xlink:href="#a"/><use xlink:href="#4"/><use xlink:href="#5" y="2.171"/><use xlink:href="#6" y="45.591"/><use xlink:href="#7" y="47.762"/><use xlink:href="#8" y="49.933"/><use xlink:href="#9" y="52.104"/><use xlink:href="#10" y="54.275"/><use xlink:href="#11" y="56.446"/><use xlink:href="#12" y="58.617"/><use xlink:href="#13" y="60.788"/><use xlink:href="#14" y="62.959"/><use xlink:href="#15" y="65.13"/><use xlink:href="#16" y="67.301"/><use xlink:href="#17" y="69.472"/><use xlink:href="#18" y="71.643"/><use xlink:href="#19" y="73.814"/><use xlink:href="#20" y="75.985"/><use xlink:href="#21" y="78.156"/><use xlink:href="#22" y="80.327"/><use xlink:href="#23" y="82.498"/><use xlink:href="#24" y="84.669"/></svg><svg x="3080"><use xlink:href="#a"/><use xlink:href="#5"/><use xlink:href="#6" y="43.42"/><use xlink:href="#7" y="45.591"/><use xlink:href="#8" y="47.762"/><use xlink:href="#9" y="49.933"/><use xlink:href="#10" y="52.104"/><use xlink:href="#11" y="54.275"/><use xlink:href="#12" y="56.446"/><use xlink:href="#13" y="58.617"/><use xlink:href="#14" y="60.788"/><use xlink:href="#15" y="62.959"/><use xlink:href="#16" y="65.13"/><use xlink:href="#17" y="67.301"/><use xlink:href="#18" y="69.472"/><use xlink:href="#19" y="71.643"/><use xlink:href="#20" y="73.814"/><use xlink:href="#21" y="75.985"/><use xlink:href="#22" y="78.156"/><use xlink:href="#23" y="80.327"/><use xlink:href="#24" y="82.498"/></svg><svg x="3220"><use xlink:href="#a"/><use xlink:href="#5"/><use xlink:href="#6" y="43.42"/><use xlink:href="#7" y="45.591"/><use xlink:href="#8" y="47.762"/><use xlink:href="#9" y="49.933"/><use xlink:href="#10" y="52.104"/><use xlink:href="#11" y="54.275"/><use xlink:href="#12" y="56.446"/><use xlink:href="#13" y="58.617"/><use xlink:href="#14" y="60.788"/><use xlink:href="#15" y="62.959"/><use xlink:href="#16" y="65.13"/><use xlink:href="#17" y="67.301"/><use xlink:href="#18" y="69.472"/><use xlink:href="#19" y="71.643"/><use xlink:href="#20" y="73.814"/><use xlink:href="#21" y="75.985"/><use xlink:href="#22" y="78.156"/><use xlink:href="#23" y="80.327"/><use xlink:href="#24" y="82.498"/><use xlink:href="#25" y="84.669"/></svg><svg x="3360"><use xlink:href="#a"/><use xlink:href="#6" y="41.249"/><use xlink:href="#7" y="43.42"/><use xlink:href="#8" y="45.591"/><use xlink:href="#9" y="47.762"/><use xlink:href="#10" y="49.933"/><use xlink:href="#11" y="52.104"/><use xlink:href="#12" y="54.275"/><use xlink:href="#13" y="56.446"/><use xlink:href="#14" y="58.617"/><use xlink:href="#15" y="60.788"/><use xlink:href="#16" y="62.959"/><use xlink:href="#17" y="65.13"/><use xlink:href="#18" y="67.301"/><use xlink:href="#19" y="69.472"/><use xlink:href="#20" y="71.643"/><use xlink:href="#21" y="73.814"/><use xlink:href="#22" y="75.985"/><use xlink:href="#23" y="78.156"/><use xlink:href="#24" y="80.327"/><use xlink:href="#25" y="82.498"/></svg><svg x="3500"><use xlink:href="#a"/><use xlink:href="#6" y="41.249"/><use xlink:href="#7" y="43.42"/><use xlink:href="#8" y="45.591"/><use xlink:href="#9" y="47.762"/><use xlink:href="#10" y="49.933"/><use xlink:href="#11" y="52.104"/><use xlink:href="#12" y="54.275"/><use xlink:href="#13" y="56.446"/><use xlink:href="#14" y="58.617"/><use xlink:href="#15" y="60.788"/><use xlink:href="#16" y="62.959"/><use xlink:href="#17" y="65.13"/><use xlink:href="#18" y="67.301"/><use xlink:href="#19" y="69.472"/><use xlink:href="#20" y="71.643"/><use xlink:href="#21" y="73.814"/><use xlink:href="#22" y="75.985"/><use xlink:href="#23" y="78.156"/><use xlink:href="#24" y="80.327"/><use xlink:href="#25" y="82.498"/><use xlink:href="#26" y="84.669"/></svg><svg x="3640"><use xlink:href="#a"/><use xlink:href="#6" y="36.907"/><use xlink:href="#7" y="39.078"/><use xlink:href="#8" y="41.249"/><use xlink:href="#9" y="43.42"/><use xlink:href="#10" y="45.591"/><use xlink:href="#11" y="47.762"/><use xlink:href="#12" y="49.933"/><use xlink:href="#13" y="52.104"/><use xlink:href="#14" y="54.275"/><use xlink:href="#15" y="56.446"/><use xlink:href="#16" y="58.617"/><use xlink:href="#17" y="60.788"/><use xlink:href="#18" y="62.959"/><use xlink:href="#19" y="65.13"/><use xlink:href="#20" y="67.301"/><use xlink:href="#21" y="69.472"/><use xlink:href="#22" y="71.643"/><use xlink:href="#23" y="73.814"/><use xlink:href="#24" y="75.985"/><use xlink:href="#25" y="78.156"/><use xlink:href="#26" y="80.327"/></svg></svg></g></svg></svg>