<svg xmlns="http://www.w3.org/2000/svg" xmlns:xlink="http://www.w3.org/1999/xlink" width="1440" height="928.4"><rect width="1440" height="928.4" rx="5" ry="5" class="a"/><svg y="0%" x="0%"><circle cx="20" cy="20" r="6" fill="#ff5f58"/><circle cx="40" cy="20" r="6" fill="#ffbd2e"/><circle cx="60" cy="20" r="6" fill="#18c132"/></svg><svg height="868.4" viewBox="0 0 140 86.84" width="1400" x="15" xmlns="http://www.w3.org/2000/svg" xmlns:xlink="http://www.w3.org/1999/xlink" y="50"><style>.a{fill:#282d35}.f,.g{fill:#a8cc8c;white-space:pre}.g,.h{font-weight:700}.h,.i,.j{fill:#dbab79;white-space:pre}.j{fill:#6f7783;font-weight:700}</style><g font-family="Monaco,Consolas,Menlo,'Bitstream Vera Sans Mono','Powerline Symbols',monospace" font-size="1.67"><defs><symbol id="1"><text x="74.148" y="1.67" class="f">&amp;</text></symbol><symbol id="2"><text x="66.132" y="1.67" class="g">&amp;</text><text x="67.134" y="1.67" class="f">&amp;</text><text x="69.138" y="1.67" class="f">&amp;</text><text x="71.142" y="1.67" class="f">&amp;</text><text x="72.144" y="1.67" class="f">&amp;</text></symbol><symbol id="3"><text x="68.136" y="1.67" class="f">&amp;</text><text x="69.138" y="1.67" class="f">&amp;&amp;</text><text x="71.142" y="1.67" class="g">&amp;</text><text x="72.144" y="1.67" class="h">&amp;</text><text x="73.146" y="1.67" class="f">&amp;&amp;</text></symbol><symbol id="4"><text x="65.13" y="1.67" class="g">&amp;</text><text x="66.132" y="1.67" class="f">&amp;</text><text x="67.134" y="1.67" class="h">&amp;</text><text x="68.136" y="1.67" class="g">&amp;</text><text x="69.138" y="1.67" class="h">&amp;</text><text x="70.14" y="1.67" class="g">&amp;</text><text x="71.142" y="1.67" class="f">&amp;&amp;</text><text x="74.148" y="1.67" class="g">&amp;</text><text x="75.15" y="1.67" class="f">&amp;&amp;</text></symbol><symbol id="5"><text x="63.126" y="1.67" class="g">&amp;</text><text x="65.13" y="1.67" class="g">&amp;</text><text x="66.132" y="1.67" class="f">&amp;</text><text x="67.134" y="1.67" class="g">&amp;</text><text x="68.136" y="1.67" class="g">&amp;</text><text x="69.138" y="1.67" class="f">&amp;</text><text x="70.14" y="1.67" class="f">&amp;</text><text x="71.142" y="1.67" class="g">&amp;</text><text x="72.144" y="1.67" class="f">&amp;</text><text x="74.148" y="1.67" class="f">&amp;</text><text x="75.15" y="1.67" class="f">&amp;</text><text x="76.152" y="1.67" class="i">&amp;</text><text x="77.154" y="1.67" class="h">&amp;</text><text x="78.156" y="1.67" class="f">&amp;</text></symbol><symbol id="6"><text x="61.122" y="1.67" class="f">&amp;&amp;</text><text x="64.128" y="1.67" class="f">&amp;</text><text x="65.13" y="1.67" class="f">&amp;</text><text x="66.132" y="1.67" class="h">\|&amp;&amp;</text><text x="70.14" y="1.67" class="f">&amp;</text><text x="71.142" y="1.67" class="g">&amp;</text><text x="72.144" y="1.67" class="f">&amp;</text><text x="73.146" y="1.67" class="g">&amp;</text><text x="74.148" y="1.67" class="f">&amp;</text><text x="75.15" y="1.67" class="g">&amp;</text><text x="76.152" y="1.67" class="f">&amp;&amp;</text><text x="78.156" y="1.67" class="f">&amp;</text><text x="79.158" y="1.67" class="g">&amp;</text></symbol><symbol id="7"><text x="63.126" y="1.67" class="f">&amp;</text><text x="64.128" y="1.67" class="f">&amp;</text><text x="65.13" y="1.67" class="g">&amp;</text><text x="66.132" y="1.67" class="f">&amp;</text><text x="67.134" y="1.67" class="f">&amp;</text><text x="68.136" y="1.67" class="f">&amp;</text><text x="69.138" y="1.67" class="g">&amp;&amp;</text><text x="71.142" y="1.67" class="g">&amp;</text><text x="72.144" y="1.67" class="f">&amp;</text><text x="73.146" y="1.67" class="f">&amp;&amp;&amp;&amp;</text><text x="77.154" y="1.67" class="g">&amp;&amp;</text></symbol><symbol id="8"><text x="62.124" y="1.67" class="f">&amp;</text><text x="63.126" y="1.67" class="i">&amp;</text><text x="64.128" y="1.67" class="f">&amp;&amp;</text><text x="66.132" y="1.67" class="f">&amp;&amp;</text><text x="68.136" y="1.67" class="h">/~</text><text x="70.14" y="1.67" class="g">&amp;</text><text x="71.142" y="1.67" class="i">~</text><text x="72.144" y="1.67" class="f">&amp;</text><text x="74.148" y="1.67" class="i">/</text><text x="75.15" y="1.67" class="f">&amp;</text><text x="76.152" y="1.67" class="i">~</text></symbol><symbol id="9"><text x="61.122" y="1.67" class="f">&amp;</text><text x="63.126" y="1.67" class="h">\</text><text x="64.128" y="1.67" class="g">&amp;&amp;</text><text x="66.132" y="1.67" class="f">&amp;</text><text x="67.134" y="1.67" class="i">|</text><text x="68.136" y="1.67" class="h">/</text><text x="69.138" y="1.67" class="i">/~</text><text x="71.142" y="1.67" class="h">|</text><text x="74.148" y="1.67" class="f">&amp;</text><text x="75.15" y="1.67" class="i">/</text></symbol><symbol id="10"><text x="64.128" y="1.67" class="f">&amp;</text><text x="65.13" y="1.67" class="h">\|/</text><text x="69.138" y="1.67" class="h">\_/|\</text><text x="74.148" y="1.67" class="i">|\</text></symbol><symbol id="11"><text x="63.126" y="1.67" class="g">&amp;</text><text x="64.128" y="1.67" class="f">&amp;</text><text x="65.13" y="1.67" class="i">/~</text><text x="67.134" y="1.67" class="g">&amp;</text><text x="68.136" y="1.67" class="h">/~</text><text x="70.14" y="1.67" class="i">\</text><text x="71.142" y="1.67" class="h">/~</text><text x="73.146" y="1.67" class="i">\|</text><text x="84.168" y="1.67" class="g">&amp;</text></symbol><symbol id="12"><text x="66.132" y="1.67" class="i">\|</text><text x="68.136" y="1.67" class="h">\|</text><text x="71.142" y="1.67" class="i">/|\|/</text><text x="84.168" y="1.67" class="f">&amp;</text><text x="85.17" y="1.67" class="f">&amp;</text><text x="88.176" y="1.67" class="g">&amp;</text></symbol><symbol id="13"><text x="60.12" y="1.67" class="g">&amp;</text><text x="67.134" y="1.67" class="h">/|\/</text><text x="71.142" y="1.67" class="i">\|</text><text x="73.146" y="1.67" class="h">/|\</text><text x="82.164" y="1.67" class="f">&amp;</text><text x="83.166" y="1.67" class="f">&amp;</text><text x="84.168" y="1.67" class="h">&amp;</text><text x="85.17" y="1.67" class="i">&amp;</text><text x="86.172" y="1.67" class="g">&amp;</text><text x="87.174" y="1.67" class="f">&amp;</text></symbol><symbol id="14"><text x="60.12" y="1.67" class="f">&amp;</text><text x="62.124" y="1.67" class="f">&amp;</text><text x="67.134" y="1.67" class="i">\||</text><text x="72.144" y="1.67" class="h">/|\</text><text x="75.15" y="1.67" class="i">\</text><text x="80.16" y="1.67" class="f">&amp;</text><text x="81.162" y="1.67" class="h">/&amp;&amp;</text><text x="84.168" y="1.67" class="f">&amp;</text><text x="85.17" y="1.67" class="f">&amp;</text><text x="86.172" y="1.67" class="g">&amp;</text></symbol><symbol id="15"><text x="58.116" y="1.67" class="i">&amp;</text><text x="59.118" y="1.67" class="h">&amp;</text><text x="60.12" y="1.67" class="g">&amp;&amp;</text><text x="68.136" y="1.67" class="i">\|~\\|</text><text x="74.148" y="1.67" class="h">~</text><text x="75.15" y="1.67" class="i">_</text><text x="76.152" y="1.67" class="h">__/</text><text x="79.158" y="1.67" class="g">&amp;</text><text x="80.16" y="1.67" class="h">_/</text><text x="82.164" y="1.67" class="g">&amp;</text><text x="83.166" y="1.67" class="f">&amp;</text><text x="84.168" y="1.67" class="f">&amp;</text><text x="86.172" y="1.67" class="f">&amp;</text></symbol><symbol id="16"><text x="57.114" y="1.67" class="f">&amp;</text><text x="58.116" y="1.67" class="f">&amp;</text><text x="59.118" y="1.67" class="i">&amp;</text><text x="60.12" y="1.67" class="g">&amp;</text><text x="61.122" y="1.67" class="h">/</text><text x="62.124" y="1.67" class="g">&amp;</text><text x="63.126" y="1.67" class="h">|</text><text x="66.132" y="1.67" class="i">\_</text><text x="68.136" y="1.67" class="h">_/~</text><text x="71.142" y="1.67" class="i">|</text><text x="72.144" y="1.67" class="h">\|~</text><text x="75.15" y="1.67" class="i">//</text><text x="77.154" y="1.67" class="h">|</text><text x="78.156" y="1.67" class="g">&amp;</text><text x="79.158" y="1.67" class="f">&amp;&amp;</text><text x="81.162" y="1.67" class="g">&amp;</text><text x="82.164" y="1.67" class="f">&amp;</text><text x="83.166" y="1.67" class="h">&amp;/</text></symbol><symbol id="17"><text x="61.122" y="1.67" class="g">&amp;</text><text x="62.124" y="1.67" class="f">&amp;</text><text x="63.126" y="1.67" class="g">&amp;</text><text x="64.128" y="1.67" class="h">_</text><text x="65.13" y="1.67" class="i">_</text><text x="71.142" y="1.67" class="i">/</text><text x="72.144" y="1.67" class="h">/|</text><text x="74.148" y="1.67" class="i">/|</text><text x="76.152" y="1.67" class="h">/</text><text x="77.154" y="1.67" class="i">/</text><text x="78.156" y="1.67" class="g">&amp;</text><text x="79.158" y="1.67" class="f">&amp;</text><text x="80.16" y="1.67" class="h">/</text><text x="81.162" y="1.67" class="g">&amp;</text><text x="82.164" y="1.67" class="f">&amp;</text><text x="83.166" y="1.67" class="i">&amp;</text></symbol><symbol id="18"><text x="62.124" y="1.67" class="f">&amp;&amp;</text><text x="71.142" y="1.67" class="i">/</text><text x="72.144" y="1.67" class="h">//</text><text x="74.148" y="1.67" class="i">_/</text><text x="76.152" y="1.67" class="h">/</text><text x="80.16" y="1.67" class="f">&amp;</text></symbol><symbol id="19"><text x="69.138" y="1.67" class="i">\|</text><text x="71.142" y="1.67" class="h">/~//~</text></symbol><symbol id="20"><text x="70.14" y="1.67" class="i">\</text><text x="71.142" y="1.67" class="h">/~</text><text x="73.146" y="1.67" class="i">|\</text></symbol><symbol id="21"><text x="71.142" y="1.67" class="h">/</text><text x="72.144" y="1.67" class="i">/~</text></symbol><symbol id="22"><text x="55.11" y="1.67" class="j">:</text><text x="56.112" y="1.67" class="g">___________</text><text x="67.134" y="1.67" class="h">./~~~\.</text><text x="74.148" y="1.67" class="g">___________</text><text x="85.17" y="1.67" class="j">:</text></symbol><symbol id="23"><text x="56.112" y="1.67" class="j">\</text><text x="84.168" y="1.67" class="j">/</text></symbol><symbol id="24"><text x="57.114" y="1.67" class="j">\_________________________/</text></symbol><symbol id="25"><text x="57.114" y="1.67" class="j">(_)</text><text x="81.162" y="1.67" class="j">(_)</text></symbol><symbol id="a"><path fill="transparent" d="M0 0h140v40H0z"/></symbol></defs><path class="a" d="M0 0h140v86.84H0z"/><svg width="280"><svg><use xlink:href="#a"/><use xlink:href="#1" y="32.565"/><use xlink:href="#2" y="34.736"/><use xlink:href="#3" y="36.907"/><use xlink:href="#4" y="39.078"/><use xlink:href="#5" y="41.249"/><use xlink:href="#6" y="43.42"/><use xlink:href="#7" y="45.591"/><use xlink:href="#8" y="47.762"/><use xlink:href="#9" y="49.933"/><use xlink:href="#10" y="52.104"/><use xlink:href="#11" y="54.275"/><use xlink:href="#12" y="56.446"/><use xlink:href="#13" y="58.617"/><use xlink:href="#14" y="60.788"/><use xlink:href="#15" y="62.959"/><use xlink:href="#16" y="65.13"/><use xlink:href="#17" y="67.301"/><use xlink:href="#18" y="69.472"/><use xlink:href="#19" y="71.643"/><use xlink:href="#20" y="73.814"/><use xlink:href="#21" y="75.985"/><use xlink:href="#22" y="78.156"/><use xlink:href="#23" y="80.327"/><use xlink:href="#24" y="82.498"/><use xlink:href="#25" y="84.669"/></svg><svg x="140"><use xlink:href="#a"/><use xlink:href="#1" y="28.223"/><use xlink:href="#2" y="30.394"/><use xlink:href="#3" y="32.565"/><use xlink:href="#4" y="34.736"/><use xlink:href="#5" y="36.907"/><use xlink:href="#6" y="39.078"/><use xlink:href="#7" y="41.249"/><use xlink:href="#8" y="43.42"/><use xlink:href="#9" y="45.591"/><use xlink:href="#10" y="47.762"/><use xlink:href="#11" y="49.933"/><use xlink:href="#12" y="52.104"/><use xlink:href="#13" y="54.275"/><use xlink:href="#14" y="56.446"/><use xlink:href="#15" y="58.617"/><use xlink:href="#16" y="60.788"/><use xlink:href="#17" y="62.959"/><use xlink:href="#18" y="65.13"/><use xlink:href="#19" y="67.301"/><use xlink:href="#20" y="69.472"/><use xlink:href="#21" y="71.643"/><use xlink:href="#22" y="73.814"/><use xlink:href="#23" y="75.985"/><use xlink:href="#24" y="78.156"/><use xlink:href="#25" y="80.327"/></svg></svg></g></svg></svg>