<svg xmlns="http://www.w3.org/2000/svg" xmlns:xlink="http://www.w3.org/1999/xlink" width="500" height="521.04"><rect width="500" height="521.04" rx="0" ry="0" class="a"/><svg height="521.04" viewBox="0 0 50 52.104" width="500" xmlns="http://www.w3.org/2000/svg" xmlns:xlink="http://www.w3.org/1999/xlink"><style>.a{fill:#282d35}.d,.e,.f,.g,.h{fill:#a8cc8c;white-space:pre}.e,.f,.g,.h{fill:#dbab79}.f,.g,.h{font-weight:700}.g,.h{fill:#a8cc8c}.h{fill:#6f7783}</style><g font-family="Monaco,Consolas,Menlo,'Bitstream Vera Sans Mono','Powerline Symbols',monospace" font-size="1.67"><defs><symbol id="a"><path fill="transparent" d="M0 0h50v24H0z"/></symbol></defs><path class="a" d="M0 0h50v52.104H0z"/><svg width="50"><svg><use xlink:href="#a"/><text x="38.076" y="3.841" class="d">&amp;&amp;</text><text x="36.072" y="6.012" class="e">&amp;</text><text x="37.074" y="6.012" class="f">&amp;</text><text x="38.076" y="6.012" class="e">&amp;</text><text x="39.078" y="6.012" class="d">&amp;</text><text x="40.08" y="6.012" class="g">&amp;</text><text x="41.082" y="6.012" class="d">&amp;</text><text x="32.064" y="8.183" class="d">&amp;</text><text x="38.076" y="8.183" class="d">&amp;&amp;</text><text x="40.08" y="8.183" class="d">&amp;&amp;</text><text x="28.056" y="10.354" class="d">&amp;</text><text x="31.062" y="10.354" class="d">&amp;</text><text x="32.064" y="10.354" class="d">&amp;&amp;</text><text x="34.068" y="10.354" class="d">&amp;</text><text x="35.07" y="10.354" class="g">&amp;</text><text x="36.072" y="10.354" class="d">&amp;&amp;</text><text x="38.076" y="10.354" class="d">&amp;</text><text x="39.078" y="10.354" class="f">~</text><text x="40.08" y="10.354" class="d">&amp;</text><text x="29.058" y="12.525" class="d">&amp;&amp;</text><text x="31.062" y="12.525" class="g">&amp;</text><text x="32.064" y="12.525" class="d">&amp;</text><text x="33.066" y="12.525" class="d">&amp;&amp;</text><text x="35.07" y="12.525" class="f">&amp;|/</text><text x="38.076" y="12.525" class="d">&amp;</text><text x="39.078" y="12.525" class="d">&amp;&amp;</text><text x="41.082" y="12.525" class="d">&amp;</text><text x="42.084" y="12.525" class="g">&amp;</text><text x="43.086" y="12.525" class="d">&amp;&amp;</text><text x="45.09" y="12.525" class="e">&amp;&amp;</text><text x="32.064" y="14.696" class="d">&amp;</text><text x="33.066" y="14.696" class="g">&amp;</text><text x="34.068" y="14.696" class="d">&amp;</text><text x="35.07" y="14.696" class="f">|/</text><text x="37.074" y="14.696" class="e">|\</text><text x="39.078" y="14.696" class="d">&amp;&amp;</text><text x="41.082" y="14.696" class="e">_</text><text x="42.084" y="14.696" class="d">&amp;</text><text x="43.086" y="14.696" class="e">&amp;</text><text x="44.088" y="14.696" class="f">&amp;</text><text x="45.09" y="14.696" class="d">&amp;</text><text x="46.092" y="14.696" class="d">&amp;</text><text x="47.094" y="14.696" class="d">&amp;</text><text x="34.068" y="16.867" class="e">/|\</text><text x="37.074" y="16.867" class="f">/</text><text x="38.076" y="16.867" class="e">/_</text><text x="40.08" y="16.867" class="g">&amp;</text><text x="41.082" y="16.867" class="d">&amp;</text><text x="42.084" y="16.867" class="e">/</text><text x="43.086" y="16.867" class="d">&amp;</text><text x="44.088" y="16.867" class="g">&amp;</text><text x="48.096" y="16.867" class="g">&amp;</text><text x="34.068" y="19.038" class="e">\|~/</text><text x="39.078" y="19.038" class="d">&amp;</text><text x="43.086" y="19.038" class="d">&amp;</text><text x="34.068" y="21.209" class="e">\\|</text><text x="34.068" y="23.38" class="f">//</text><text x="36.072" y="23.38" class="e">/~</text><text x="8.016" y="25.551" class="g">&amp;</text><text x="13.026" y="25.551" class="d">&amp;</text><text x="34.068" y="25.551" class="f">\|</text><text x="6.012" y="27.722" class="e">&amp;</text><text x="8.016" y="27.722" class="e">&amp;</text><text x="9.018" y="27.722" class="d">&amp;&amp;&amp;&amp;&amp;</text><text x="14.028" y="27.722" class="d">&amp;</text><text x="35.07" y="27.722" class="f">|/</text><text x="10.02" y="29.893" class="f">&amp;</text><text x="11.022" y="29.893" class="d">&amp;</text><text x="12.024" y="29.893" class="e">/</text><text x="13.026" y="29.893" class="d">&amp;</text><text x="14.028" y="29.893" class="d">&amp;</text><text x="34.068" y="29.893" class="f">/|\</text><text x="10.02" y="32.064" class="d">&amp;&amp;</text><text x="12.024" y="32.064" class="f">\</text><text x="13.026" y="32.064" class="g">&amp;</text><text x="14.028" y="32.064" class="d">&amp;</text><text x="15.03" y="32.064" class="f">_</text><text x="16.032" y="32.064" class="e">_</text><text x="17.034" y="32.064" class="f">/</text><text x="33.066" y="32.064" class="e">/</text><text x="34.068" y="32.064" class="f">/~</text><text x="10.02" y="34.235" class="d">&amp;&amp;</text><text x="12.024" y="34.235" class="g">&amp;</text><text x="14.028" y="34.235" class="d">&amp;</text><text x="16.032" y="34.235" class="f">\_</text><text x="18.036" y="34.235" class="e">_\_</text><text x="21.042" y="34.235" class="f">\|</text><text x="32.064" y="34.235" class="f">\</text><text x="33.066" y="34.235" class="e">/~</text><text x="22.044" y="36.406" class="e">\_</text><text x="31.062" y="36.406" class="e">|//~</text><text x="22.044" y="38.577" class="e">\_</text><text x="29.058" y="38.577" class="f">|</text><text x="30.06" y="38.577" class="e">/~</text><text x="22.044" y="40.748" class="e">\\_|</text><text x="28.056" y="40.748" class="f">/|</text><text x="25.05" y="42.919" class="e">\\_</text><text x="28.056" y="42.919" class="f">_</text><text x="29.058" y="42.919" class="e">_</text><text x="30.06" y="42.919" class="f">_</text><text x="10.02" y="45.09" class="h">:</text><text x="11.022" y="45.09" class="g">___________</text><text x="22.044" y="45.09" class="f">./~~~\.</text><text x="29.058" y="45.09" class="g">___________</text><text x="40.08" y="45.09" class="h">:</text><text x="11.022" y="47.261" class="h">\</text><text x="39.078" y="47.261" class="h">/</text><text x="12.024" y="49.432" class="h">\_________________________/</text><text x="12.024" y="51.603" class="h">(_)</text><text x="36.072" y="51.603" class="h">(_)</text></svg></svg></g></svg></svg>